<svg width="563" height="351" viewBox="0 0 563 351" fill="none" xmlns="http://www.w3.org/2000/svg">
<line x1="57.5" y1="49" x2="57.5" y2="273" stroke="black" stroke-opacity="0.2"/>
<line x1="208.5" y1="49" x2="208.5" y2="273" stroke="black" stroke-opacity="0.2"/>
<line x1="359.5" y1="49" x2="359.5" y2="273" stroke="black" stroke-opacity="0.2"/>
<line x1="511.5" y1="49" x2="511.5" y2="273" stroke="black" stroke-opacity="0.2"/>
<line x1="108.5" y1="49" x2="108.5" y2="273" stroke="black" stroke-opacity="0.2"/>
<line x1="259.5" y1="49" x2="259.5" y2="273" stroke="black" stroke-opacity="0.2"/>
<line x1="410.5" y1="49" x2="410.5" y2="273" stroke="black" stroke-opacity="0.2"/>
<line x1="562.5" y1="49" x2="562.5" y2="273" stroke="black" stroke-opacity="0.2"/>
<line x1="158.5" y1="49" x2="158.5" y2="273" stroke="black" stroke-opacity="0.2"/>
<line x1="309.5" y1="49" x2="309.5" y2="273" stroke="black" stroke-opacity="0.2"/>
<line x1="460.5" y1="49" x2="460.5" y2="273" stroke="black" stroke-opacity="0.2"/>
<path d="M70.624 266.66C71.512 266.66 72.288 266.832 72.952 267.176C73.624 267.512 74.14 268 74.5 268.64C74.868 269.272 75.052 270.012 75.052 270.86C75.052 271.708 74.868 272.444 74.5 273.068C74.14 273.692 73.624 274.172 72.952 274.508C72.288 274.836 71.512 275 70.624 275H67.9V266.66H70.624ZM70.624 273.884C71.6 273.884 72.348 273.62 72.868 273.092C73.388 272.564 73.648 271.82 73.648 270.86C73.648 269.892 73.388 269.136 72.868 268.592C72.348 268.048 71.6 267.776 70.624 267.776H69.268V273.884H70.624ZM75.9518 271.664C75.9518 271 76.0878 270.412 76.3598 269.9C76.6398 269.388 77.0158 268.992 77.4878 268.712C77.9678 268.424 78.4958 268.28 79.0718 268.28C79.5918 268.28 80.0438 268.384 80.4278 268.592C80.8198 268.792 81.1318 269.044 81.3638 269.348V268.388H82.7438V275H81.3638V274.016C81.1318 274.328 80.8158 274.588 80.4158 274.796C80.0158 275.004 79.5598 275.108 79.0478 275.108C78.4798 275.108 77.9598 274.964 77.4878 274.676C77.0158 274.38 76.6398 273.972 76.3598 273.452C76.0878 272.924 75.9518 272.328 75.9518 271.664ZM81.3638 271.688C81.3638 271.232 81.2678 270.836 81.0758 270.5C80.8918 270.164 80.6478 269.908 80.3438 269.732C80.0398 269.556 79.7118 269.468 79.3598 269.468C79.0078 269.468 78.6798 269.556 78.3758 269.732C78.0718 269.9 77.8238 270.152 77.6318 270.488C77.4478 270.816 77.3558 271.208 77.3558 271.664C77.3558 272.12 77.4478 272.52 77.6318 272.864C77.8238 273.208 78.0718 273.472 78.3758 273.656C78.6878 273.832 79.0158 273.92 79.3598 273.92C79.7118 273.92 80.0398 273.832 80.3438 273.656C80.6478 273.48 80.8918 273.224 81.0758 272.888C81.2678 272.544 81.3638 272.144 81.3638 271.688ZM90.4926 268.388L86.4366 278.108H85.0206L86.3646 274.892L83.7606 268.388H85.2846L87.1446 273.428L89.0766 268.388H90.4926ZM94.2822 267.5V266.252H96.7782V275H95.3982V267.5H94.2822Z" fill="black"/>
<path d="M152.732 7.144C152.732 7.568 152.632 7.968 152.432 8.344C152.232 8.72 151.912 9.028 151.472 9.268C151.032 9.5 150.468 9.616 149.78 9.616H148.268V13H146.9V4.66H149.78C150.42 4.66 150.96 4.772 151.4 4.996C151.848 5.212 152.18 5.508 152.396 5.884C152.62 6.26 152.732 6.68 152.732 7.144ZM149.78 8.5C150.3 8.5 150.688 8.384 150.944 8.152C151.2 7.912 151.328 7.576 151.328 7.144C151.328 6.232 150.812 5.776 149.78 5.776H148.268V8.5H149.78ZM155.405 4.12V13H154.037V4.12H155.405ZM156.745 9.664C156.745 9 156.881 8.412 157.153 7.9C157.433 7.388 157.809 6.992 158.281 6.712C158.761 6.424 159.289 6.28 159.865 6.28C160.385 6.28 160.837 6.384 161.221 6.592C161.613 6.792 161.925 7.044 162.157 7.348V6.388H163.537V13H162.157V12.016C161.925 12.328 161.609 12.588 161.209 12.796C160.809 13.004 160.353 13.108 159.841 13.108C159.273 13.108 158.753 12.964 158.281 12.676C157.809 12.38 157.433 11.972 157.153 11.452C156.881 10.924 156.745 10.328 156.745 9.664ZM162.157 9.688C162.157 9.232 162.061 8.836 161.869 8.5C161.685 8.164 161.441 7.908 161.137 7.732C160.833 7.556 160.505 7.468 160.153 7.468C159.801 7.468 159.473 7.556 159.169 7.732C158.865 7.9 158.617 8.152 158.425 8.488C158.241 8.816 158.149 9.208 158.149 9.664C158.149 10.12 158.241 10.52 158.425 10.864C158.617 11.208 158.865 11.472 159.169 11.656C159.481 11.832 159.809 11.92 160.153 11.92C160.505 11.92 160.833 11.832 161.137 11.656C161.441 11.48 161.685 11.224 161.869 10.888C162.061 10.544 162.157 10.144 162.157 9.688ZM168.67 6.28C169.19 6.28 169.654 6.388 170.062 6.604C170.478 6.82 170.802 7.14 171.034 7.564C171.266 7.988 171.382 8.5 171.382 9.1V13H170.026V9.304C170.026 8.712 169.878 8.26 169.582 7.948C169.286 7.628 168.882 7.468 168.37 7.468C167.858 7.468 167.45 7.628 167.146 7.948C166.85 8.26 166.702 8.712 166.702 9.304V13H165.334V6.388H166.702V7.144C166.926 6.872 167.21 6.66 167.554 6.508C167.906 6.356 168.278 6.28 168.67 6.28ZM176.463 6.28C176.983 6.28 177.447 6.388 177.855 6.604C178.271 6.82 178.595 7.14 178.827 7.564C179.059 7.988 179.175 8.5 179.175 9.1V13H177.819V9.304C177.819 8.712 177.671 8.26 177.375 7.948C177.079 7.628 176.675 7.468 176.163 7.468C175.651 7.468 175.243 7.628 174.939 7.948C174.643 8.26 174.495 8.712 174.495 9.304V13H173.127V6.388H174.495V7.144C174.719 6.872 175.003 6.66 175.347 6.508C175.699 6.356 176.071 6.28 176.463 6.28ZM186.98 9.532C186.98 9.78 186.964 10.004 186.932 10.204H181.88C181.92 10.732 182.116 11.156 182.468 11.476C182.82 11.796 183.252 11.956 183.764 11.956C184.5 11.956 185.02 11.648 185.324 11.032H186.8C186.6 11.64 186.236 12.14 185.708 12.532C185.188 12.916 184.54 13.108 183.764 13.108C183.132 13.108 182.564 12.968 182.06 12.688C181.564 12.4 181.172 12 180.884 11.488C180.604 10.968 180.464 10.368 180.464 9.688C180.464 9.008 180.6 8.412 180.872 7.9C181.152 7.38 181.54 6.98 182.036 6.7C182.54 6.42 183.116 6.28 183.764 6.28C184.388 6.28 184.944 6.416 185.432 6.688C185.92 6.96 186.3 7.344 186.572 7.84C186.844 8.328 186.98 8.892 186.98 9.532ZM185.552 9.1C185.544 8.596 185.364 8.192 185.012 7.888C184.66 7.584 184.224 7.432 183.704 7.432C183.232 7.432 182.828 7.584 182.492 7.888C182.156 8.184 181.956 8.588 181.892 9.1H185.552ZM187.87 9.664C187.87 9 188.006 8.412 188.278 7.9C188.558 7.388 188.934 6.992 189.406 6.712C189.886 6.424 190.418 6.28 191.002 6.28C191.434 6.28 191.858 6.376 192.274 6.568C192.698 6.752 193.034 7 193.282 7.312V4.12H194.662V13H193.282V12.004C193.058 12.324 192.746 12.588 192.346 12.796C191.954 13.004 191.502 13.108 190.99 13.108C190.414 13.108 189.886 12.964 189.406 12.676C188.934 12.38 188.558 11.972 188.278 11.452C188.006 10.924 187.87 10.328 187.87 9.664ZM193.282 9.688C193.282 9.232 193.186 8.836 192.994 8.5C192.81 8.164 192.566 7.908 192.262 7.732C191.958 7.556 191.63 7.468 191.278 7.468C190.926 7.468 190.598 7.556 190.294 7.732C189.99 7.9 189.742 8.152 189.55 8.488C189.366 8.816 189.274 9.208 189.274 9.664C189.274 10.12 189.366 10.52 189.55 10.864C189.742 11.208 189.99 11.472 190.294 11.656C190.606 11.832 190.934 11.92 191.278 11.92C191.63 11.92 191.958 11.832 192.262 11.656C192.566 11.48 192.81 11.224 192.994 10.888C193.186 10.544 193.282 10.144 193.282 9.688ZM204.964 4.66V5.776H202.744V13H201.376V5.776H199.144V4.66H204.964ZM205.893 9.664C205.893 9 206.029 8.412 206.301 7.9C206.581 7.388 206.957 6.992 207.429 6.712C207.909 6.424 208.437 6.28 209.013 6.28C209.533 6.28 209.985 6.384 210.369 6.592C210.761 6.792 211.073 7.044 211.305 7.348V6.388H212.685V13H211.305V12.016C211.073 12.328 210.757 12.588 210.357 12.796C209.957 13.004 209.501 13.108 208.989 13.108C208.421 13.108 207.901 12.964 207.429 12.676C206.957 12.38 206.581 11.972 206.301 11.452C206.029 10.924 205.893 10.328 205.893 9.664ZM211.305 9.688C211.305 9.232 211.209 8.836 211.017 8.5C210.833 8.164 210.589 7.908 210.285 7.732C209.981 7.556 209.653 7.468 209.301 7.468C208.949 7.468 208.621 7.556 208.317 7.732C208.013 7.9 207.765 8.152 207.573 8.488C207.389 8.816 207.297 9.208 207.297 9.664C207.297 10.12 207.389 10.52 207.573 10.864C207.765 11.208 208.013 11.472 208.317 11.656C208.629 11.832 208.957 11.92 209.301 11.92C209.653 11.92 209.981 11.832 210.285 11.656C210.589 11.48 210.833 11.224 211.017 10.888C211.209 10.544 211.305 10.144 211.305 9.688ZM216.882 13.108C216.362 13.108 215.894 13.016 215.478 12.832C215.07 12.64 214.746 12.384 214.506 12.064C214.266 11.736 214.138 11.372 214.122 10.972H215.538C215.562 11.252 215.694 11.488 215.934 11.68C216.182 11.864 216.49 11.956 216.858 11.956C217.242 11.956 217.538 11.884 217.746 11.74C217.962 11.588 218.07 11.396 218.07 11.164C218.07 10.916 217.95 10.732 217.71 10.612C217.478 10.492 217.106 10.36 216.594 10.216C216.098 10.08 215.694 9.948 215.382 9.82C215.07 9.692 214.798 9.496 214.566 9.232C214.342 8.968 214.23 8.62 214.23 8.188C214.23 7.836 214.334 7.516 214.542 7.228C214.75 6.932 215.046 6.7 215.43 6.532C215.822 6.364 216.27 6.28 216.774 6.28C217.526 6.28 218.13 6.472 218.586 6.856C219.05 7.232 219.298 7.748 219.33 8.404H217.962C217.938 8.108 217.818 7.872 217.602 7.696C217.386 7.52 217.094 7.432 216.726 7.432C216.366 7.432 216.09 7.5 215.898 7.636C215.706 7.772 215.61 7.952 215.61 8.176C215.61 8.352 215.674 8.5 215.802 8.62C215.93 8.74 216.086 8.836 216.27 8.908C216.454 8.972 216.726 9.056 217.086 9.16C217.566 9.288 217.958 9.42 218.262 9.556C218.574 9.684 218.842 9.876 219.066 10.132C219.29 10.388 219.406 10.728 219.414 11.152C219.414 11.528 219.31 11.864 219.102 12.16C218.894 12.456 218.598 12.688 218.214 12.856C217.838 13.024 217.394 13.108 216.882 13.108ZM223.508 9.7L226.556 13H224.708L222.26 10.156V13H220.892V4.12H222.26V9.28L224.66 6.388H226.556L223.508 9.7ZM230.198 8.812C230.198 7.996 230.386 7.264 230.762 6.616C231.146 5.968 231.662 5.464 232.31 5.104C232.966 4.736 233.682 4.552 234.458 4.552C235.346 4.552 236.134 4.772 236.822 5.212C237.518 5.644 238.022 6.26 238.334 7.06H236.69C236.474 6.62 236.174 6.292 235.79 6.076C235.406 5.86 234.962 5.752 234.458 5.752C233.906 5.752 233.414 5.876 232.982 6.124C232.55 6.372 232.21 6.728 231.962 7.192C231.722 7.656 231.602 8.196 231.602 8.812C231.602 9.428 231.722 9.968 231.962 10.432C232.21 10.896 232.55 11.256 232.982 11.512C233.414 11.76 233.906 11.884 234.458 11.884C234.962 11.884 235.406 11.776 235.79 11.56C236.174 11.344 236.474 11.016 236.69 10.576H238.334C238.022 11.376 237.518 11.992 236.822 12.424C236.134 12.856 235.346 13.072 234.458 13.072C233.674 13.072 232.958 12.892 232.31 12.532C231.662 12.164 231.146 11.656 230.762 11.008C230.386 10.36 230.198 9.628 230.198 8.812ZM242.803 13.108C242.179 13.108 241.615 12.968 241.111 12.688C240.607 12.4 240.211 12 239.923 11.488C239.635 10.968 239.491 10.368 239.491 9.688C239.491 9.016 239.639 8.42 239.935 7.9C240.231 7.38 240.635 6.98 241.147 6.7C241.659 6.42 242.231 6.28 242.863 6.28C243.495 6.28 244.067 6.42 244.579 6.7C245.091 6.98 245.495 7.38 245.791 7.9C246.087 8.42 246.235 9.016 246.235 9.688C246.235 10.36 246.083 10.956 245.779 11.476C245.475 11.996 245.059 12.4 244.531 12.688C244.011 12.968 243.435 13.108 242.803 13.108ZM242.803 11.92C243.155 11.92 243.483 11.836 243.787 11.668C244.099 11.5 244.351 11.248 244.543 10.912C244.735 10.576 244.831 10.168 244.831 9.688C244.831 9.208 244.739 8.804 244.555 8.476C244.371 8.14 244.127 7.888 243.823 7.72C243.519 7.552 243.191 7.468 242.839 7.468C242.487 7.468 242.159 7.552 241.855 7.72C241.559 7.888 241.323 8.14 241.147 8.476C240.971 8.804 240.883 9.208 240.883 9.688C240.883 10.4 241.063 10.952 241.423 11.344C241.791 11.728 242.251 11.92 242.803 11.92ZM255.592 6.28C256.112 6.28 256.576 6.388 256.984 6.604C257.4 6.82 257.724 7.14 257.956 7.564C258.196 7.988 258.316 8.5 258.316 9.1V13H256.96V9.304C256.96 8.712 256.812 8.26 256.516 7.948C256.22 7.628 255.816 7.468 255.304 7.468C254.792 7.468 254.384 7.628 254.08 7.948C253.784 8.26 253.636 8.712 253.636 9.304V13H252.28V9.304C252.28 8.712 252.132 8.26 251.836 7.948C251.54 7.628 251.136 7.468 250.624 7.468C250.112 7.468 249.704 7.628 249.4 7.948C249.104 8.26 248.956 8.712 248.956 9.304V13H247.588V6.388H248.956V7.144C249.18 6.872 249.464 6.66 249.808 6.508C250.152 6.356 250.52 6.28 250.912 6.28C251.44 6.28 251.912 6.392 252.328 6.616C252.744 6.84 253.064 7.164 253.288 7.588C253.488 7.188 253.8 6.872 254.224 6.64C254.648 6.4 255.104 6.28 255.592 6.28ZM261.424 7.36C261.656 7.056 261.972 6.8 262.372 6.592C262.772 6.384 263.224 6.28 263.728 6.28C264.304 6.28 264.828 6.424 265.3 6.712C265.78 6.992 266.156 7.388 266.428 7.9C266.7 8.412 266.836 9 266.836 9.664C266.836 10.328 266.7 10.924 266.428 11.452C266.156 11.972 265.78 12.38 265.3 12.676C264.828 12.964 264.304 13.108 263.728 13.108C263.224 13.108 262.776 13.008 262.384 12.808C261.992 12.6 261.672 12.344 261.424 12.04V16.144H260.056V6.388H261.424V7.36ZM265.444 9.664C265.444 9.208 265.348 8.816 265.156 8.488C264.972 8.152 264.724 7.9 264.412 7.732C264.108 7.556 263.78 7.468 263.428 7.468C263.084 7.468 262.756 7.556 262.444 7.732C262.14 7.908 261.892 8.164 261.7 8.5C261.516 8.836 261.424 9.232 261.424 9.688C261.424 10.144 261.516 10.544 261.7 10.888C261.892 11.224 262.14 11.48 262.444 11.656C262.756 11.832 263.084 11.92 263.428 11.92C263.78 11.92 264.108 11.832 264.412 11.656C264.724 11.472 264.972 11.208 265.156 10.864C265.348 10.52 265.444 10.12 265.444 9.664ZM269.557 4.12V13H268.189V4.12H269.557ZM277.413 9.532C277.413 9.78 277.397 10.004 277.365 10.204H272.313C272.353 10.732 272.549 11.156 272.901 11.476C273.253 11.796 273.685 11.956 274.197 11.956C274.933 11.956 275.453 11.648 275.757 11.032H277.233C277.033 11.64 276.669 12.14 276.141 12.532C275.621 12.916 274.973 13.108 274.197 13.108C273.565 13.108 272.997 12.968 272.493 12.688C271.997 12.4 271.605 12 271.317 11.488C271.037 10.968 270.897 10.368 270.897 9.688C270.897 9.008 271.033 8.412 271.305 7.9C271.585 7.38 271.973 6.98 272.469 6.7C272.973 6.42 273.549 6.28 274.197 6.28C274.821 6.28 275.377 6.416 275.865 6.688C276.353 6.96 276.733 7.344 277.005 7.84C277.277 8.328 277.413 8.892 277.413 9.532ZM275.985 9.1C275.977 8.596 275.797 8.192 275.445 7.888C275.093 7.584 274.657 7.432 274.137 7.432C273.665 7.432 273.261 7.584 272.925 7.888C272.589 8.184 272.389 8.588 272.325 9.1H275.985ZM280.355 7.504V11.164C280.355 11.412 280.411 11.592 280.523 11.704C280.643 11.808 280.843 11.86 281.123 11.86H281.963V13H280.883C280.267 13 279.795 12.856 279.467 12.568C279.139 12.28 278.975 11.812 278.975 11.164V7.504H278.195V6.388H278.975V4.744H280.355V6.388H281.963V7.504H280.355ZM283.92 5.512C283.672 5.512 283.464 5.428 283.296 5.26C283.128 5.092 283.044 4.884 283.044 4.636C283.044 4.388 283.128 4.18 283.296 4.012C283.464 3.844 283.672 3.76 283.92 3.76C284.16 3.76 284.364 3.844 284.532 4.012C284.7 4.18 284.784 4.388 284.784 4.636C284.784 4.884 284.7 5.092 284.532 5.26C284.364 5.428 284.16 5.512 283.92 5.512ZM284.592 6.388V13H283.224V6.388H284.592ZM289.256 13.108C288.632 13.108 288.068 12.968 287.564 12.688C287.06 12.4 286.664 12 286.376 11.488C286.088 10.968 285.944 10.368 285.944 9.688C285.944 9.016 286.092 8.42 286.388 7.9C286.684 7.38 287.088 6.98 287.6 6.7C288.112 6.42 288.684 6.28 289.316 6.28C289.948 6.28 290.52 6.42 291.032 6.7C291.544 6.98 291.948 7.38 292.244 7.9C292.54 8.42 292.688 9.016 292.688 9.688C292.688 10.36 292.536 10.956 292.232 11.476C291.928 11.996 291.512 12.4 290.984 12.688C290.464 12.968 289.888 13.108 289.256 13.108ZM289.256 11.92C289.608 11.92 289.936 11.836 290.24 11.668C290.552 11.5 290.804 11.248 290.996 10.912C291.188 10.576 291.284 10.168 291.284 9.688C291.284 9.208 291.192 8.804 291.008 8.476C290.824 8.14 290.58 7.888 290.276 7.72C289.972 7.552 289.644 7.468 289.292 7.468C288.94 7.468 288.612 7.552 288.308 7.72C288.012 7.888 287.776 8.14 287.6 8.476C287.424 8.804 287.336 9.208 287.336 9.688C287.336 10.4 287.516 10.952 287.876 11.344C288.244 11.728 288.704 11.92 289.256 11.92ZM297.377 6.28C297.897 6.28 298.361 6.388 298.769 6.604C299.185 6.82 299.509 7.14 299.741 7.564C299.973 7.988 300.089 8.5 300.089 9.1V13H298.733V9.304C298.733 8.712 298.585 8.26 298.289 7.948C297.993 7.628 297.589 7.468 297.077 7.468C296.565 7.468 296.157 7.628 295.853 7.948C295.557 8.26 295.409 8.712 295.409 9.304V13H294.041V6.388H295.409V7.144C295.633 6.872 295.917 6.66 296.261 6.508C296.613 6.356 296.985 6.28 297.377 6.28Z" fill="black"/>
<path d="M373.928 11.296H370.436L369.836 13H368.408L371.396 4.648H372.98L375.968 13H374.528L373.928 11.296ZM373.544 10.18L372.188 6.304L370.82 10.18H373.544ZM376.811 9.688C376.811 9.008 376.947 8.412 377.219 7.9C377.499 7.38 377.883 6.98 378.371 6.7C378.859 6.42 379.419 6.28 380.051 6.28C380.851 6.28 381.511 6.472 382.031 6.856C382.559 7.232 382.915 7.772 383.099 8.476H381.623C381.503 8.148 381.311 7.892 381.047 7.708C380.783 7.524 380.451 7.432 380.051 7.432C379.491 7.432 379.043 7.632 378.707 8.032C378.379 8.424 378.215 8.976 378.215 9.688C378.215 10.4 378.379 10.956 378.707 11.356C379.043 11.756 379.491 11.956 380.051 11.956C380.843 11.956 381.367 11.608 381.623 10.912H383.099C382.907 11.584 382.547 12.12 382.019 12.52C381.491 12.912 380.835 13.108 380.051 13.108C379.419 13.108 378.859 12.968 378.371 12.688C377.883 12.4 377.499 12 377.219 11.488C376.947 10.968 376.811 10.368 376.811 9.688ZM386.059 7.504V11.164C386.059 11.412 386.115 11.592 386.227 11.704C386.347 11.808 386.547 11.86 386.827 11.86H387.667V13H386.587C385.971 13 385.499 12.856 385.171 12.568C384.843 12.28 384.679 11.812 384.679 11.164V7.504H383.899V6.388H384.679V4.744H386.059V6.388H387.667V7.504H386.059ZM394.915 6.388V13H393.547V12.22C393.331 12.492 393.047 12.708 392.695 12.868C392.351 13.02 391.983 13.096 391.591 13.096C391.071 13.096 390.603 12.988 390.187 12.772C389.779 12.556 389.455 12.236 389.215 11.812C388.983 11.388 388.867 10.876 388.867 10.276V6.388H390.223V10.072C390.223 10.664 390.371 11.12 390.667 11.44C390.963 11.752 391.367 11.908 391.879 11.908C392.391 11.908 392.795 11.752 393.091 11.44C393.395 11.12 393.547 10.664 393.547 10.072V6.388H394.915ZM396.264 9.664C396.264 9 396.4 8.412 396.672 7.9C396.952 7.388 397.328 6.992 397.8 6.712C398.28 6.424 398.808 6.28 399.384 6.28C399.904 6.28 400.356 6.384 400.74 6.592C401.132 6.792 401.444 7.044 401.676 7.348V6.388H403.056V13H401.676V12.016C401.444 12.328 401.128 12.588 400.728 12.796C400.328 13.004 399.872 13.108 399.36 13.108C398.792 13.108 398.272 12.964 397.8 12.676C397.328 12.38 396.952 11.972 396.672 11.452C396.4 10.924 396.264 10.328 396.264 9.664ZM401.676 9.688C401.676 9.232 401.58 8.836 401.388 8.5C401.204 8.164 400.96 7.908 400.656 7.732C400.352 7.556 400.024 7.468 399.672 7.468C399.32 7.468 398.992 7.556 398.688 7.732C398.384 7.9 398.136 8.152 397.944 8.488C397.76 8.816 397.668 9.208 397.668 9.664C397.668 10.12 397.76 10.52 397.944 10.864C398.136 11.208 398.384 11.472 398.688 11.656C399 11.832 399.328 11.92 399.672 11.92C400.024 11.92 400.352 11.832 400.656 11.656C400.96 11.48 401.204 11.224 401.388 10.888C401.58 10.544 401.676 10.144 401.676 9.688ZM406.221 4.12V13H404.853V4.12H406.221ZM416.522 4.66V5.776H414.302V13H412.934V5.776H410.702V4.66H416.522ZM417.452 9.664C417.452 9 417.588 8.412 417.86 7.9C418.14 7.388 418.516 6.992 418.988 6.712C419.468 6.424 419.996 6.28 420.572 6.28C421.092 6.28 421.544 6.384 421.928 6.592C422.32 6.792 422.632 7.044 422.864 7.348V6.388H424.244V13H422.864V12.016C422.632 12.328 422.316 12.588 421.916 12.796C421.516 13.004 421.06 13.108 420.548 13.108C419.98 13.108 419.46 12.964 418.988 12.676C418.516 12.38 418.14 11.972 417.86 11.452C417.588 10.924 417.452 10.328 417.452 9.664ZM422.864 9.688C422.864 9.232 422.768 8.836 422.576 8.5C422.392 8.164 422.148 7.908 421.844 7.732C421.54 7.556 421.212 7.468 420.86 7.468C420.508 7.468 420.18 7.556 419.876 7.732C419.572 7.9 419.324 8.152 419.132 8.488C418.948 8.816 418.856 9.208 418.856 9.664C418.856 10.12 418.948 10.52 419.132 10.864C419.324 11.208 419.572 11.472 419.876 11.656C420.188 11.832 420.516 11.92 420.86 11.92C421.212 11.92 421.54 11.832 421.844 11.656C422.148 11.48 422.392 11.224 422.576 10.888C422.768 10.544 422.864 10.144 422.864 9.688ZM428.441 13.108C427.921 13.108 427.453 13.016 427.037 12.832C426.629 12.64 426.305 12.384 426.065 12.064C425.825 11.736 425.697 11.372 425.681 10.972H427.097C427.121 11.252 427.253 11.488 427.493 11.68C427.741 11.864 428.049 11.956 428.417 11.956C428.801 11.956 429.097 11.884 429.305 11.74C429.521 11.588 429.629 11.396 429.629 11.164C429.629 10.916 429.509 10.732 429.269 10.612C429.037 10.492 428.665 10.36 428.153 10.216C427.657 10.08 427.253 9.948 426.941 9.82C426.629 9.692 426.357 9.496 426.125 9.232C425.901 8.968 425.789 8.62 425.789 8.188C425.789 7.836 425.893 7.516 426.101 7.228C426.309 6.932 426.605 6.7 426.989 6.532C427.381 6.364 427.829 6.28 428.333 6.28C429.085 6.28 429.689 6.472 430.145 6.856C430.609 7.232 430.857 7.748 430.889 8.404H429.521C429.497 8.108 429.377 7.872 429.161 7.696C428.945 7.52 428.653 7.432 428.285 7.432C427.925 7.432 427.649 7.5 427.457 7.636C427.265 7.772 427.169 7.952 427.169 8.176C427.169 8.352 427.233 8.5 427.361 8.62C427.489 8.74 427.645 8.836 427.829 8.908C428.013 8.972 428.285 9.056 428.645 9.16C429.125 9.288 429.517 9.42 429.821 9.556C430.133 9.684 430.401 9.876 430.625 10.132C430.849 10.388 430.965 10.728 430.973 11.152C430.973 11.528 430.869 11.864 430.661 12.16C430.453 12.456 430.157 12.688 429.773 12.856C429.397 13.024 428.953 13.108 428.441 13.108ZM435.067 9.7L438.115 13H436.267L433.819 10.156V13H432.451V4.12H433.819V9.28L436.219 6.388H438.115L435.067 9.7ZM441.757 8.812C441.757 7.996 441.945 7.264 442.321 6.616C442.705 5.968 443.221 5.464 443.869 5.104C444.525 4.736 445.241 4.552 446.017 4.552C446.905 4.552 447.693 4.772 448.381 5.212C449.077 5.644 449.581 6.26 449.893 7.06H448.249C448.033 6.62 447.733 6.292 447.349 6.076C446.965 5.86 446.521 5.752 446.017 5.752C445.465 5.752 444.973 5.876 444.541 6.124C444.109 6.372 443.769 6.728 443.521 7.192C443.281 7.656 443.161 8.196 443.161 8.812C443.161 9.428 443.281 9.968 443.521 10.432C443.769 10.896 444.109 11.256 444.541 11.512C444.973 11.76 445.465 11.884 446.017 11.884C446.521 11.884 446.965 11.776 447.349 11.56C447.733 11.344 448.033 11.016 448.249 10.576H449.893C449.581 11.376 449.077 11.992 448.381 12.424C447.693 12.856 446.905 13.072 446.017 13.072C445.233 13.072 444.517 12.892 443.869 12.532C443.221 12.164 442.705 11.656 442.321 11.008C441.945 10.36 441.757 9.628 441.757 8.812ZM454.362 13.108C453.738 13.108 453.174 12.968 452.67 12.688C452.166 12.4 451.77 12 451.482 11.488C451.194 10.968 451.05 10.368 451.05 9.688C451.05 9.016 451.198 8.42 451.494 7.9C451.79 7.38 452.194 6.98 452.706 6.7C453.218 6.42 453.79 6.28 454.422 6.28C455.054 6.28 455.626 6.42 456.138 6.7C456.65 6.98 457.054 7.38 457.35 7.9C457.646 8.42 457.794 9.016 457.794 9.688C457.794 10.36 457.642 10.956 457.338 11.476C457.034 11.996 456.618 12.4 456.09 12.688C455.57 12.968 454.994 13.108 454.362 13.108ZM454.362 11.92C454.714 11.92 455.042 11.836 455.346 11.668C455.658 11.5 455.91 11.248 456.102 10.912C456.294 10.576 456.39 10.168 456.39 9.688C456.39 9.208 456.298 8.804 456.114 8.476C455.93 8.14 455.686 7.888 455.382 7.72C455.078 7.552 454.75 7.468 454.398 7.468C454.046 7.468 453.718 7.552 453.414 7.72C453.118 7.888 452.882 8.14 452.706 8.476C452.53 8.804 452.442 9.208 452.442 9.688C452.442 10.4 452.622 10.952 452.982 11.344C453.35 11.728 453.81 11.92 454.362 11.92ZM467.15 6.28C467.67 6.28 468.134 6.388 468.542 6.604C468.958 6.82 469.282 7.14 469.514 7.564C469.754 7.988 469.874 8.5 469.874 9.1V13H468.518V9.304C468.518 8.712 468.37 8.26 468.074 7.948C467.778 7.628 467.374 7.468 466.862 7.468C466.35 7.468 465.942 7.628 465.638 7.948C465.342 8.26 465.194 8.712 465.194 9.304V13H463.838V9.304C463.838 8.712 463.69 8.26 463.394 7.948C463.098 7.628 462.694 7.468 462.182 7.468C461.67 7.468 461.262 7.628 460.958 7.948C460.662 8.26 460.514 8.712 460.514 9.304V13H459.146V6.388H460.514V7.144C460.738 6.872 461.022 6.66 461.366 6.508C461.71 6.356 462.078 6.28 462.47 6.28C462.998 6.28 463.47 6.392 463.886 6.616C464.302 6.84 464.622 7.164 464.846 7.588C465.046 7.188 465.358 6.872 465.782 6.64C466.206 6.4 466.662 6.28 467.15 6.28ZM472.983 7.36C473.215 7.056 473.531 6.8 473.931 6.592C474.331 6.384 474.783 6.28 475.287 6.28C475.863 6.28 476.387 6.424 476.859 6.712C477.339 6.992 477.715 7.388 477.987 7.9C478.259 8.412 478.395 9 478.395 9.664C478.395 10.328 478.259 10.924 477.987 11.452C477.715 11.972 477.339 12.38 476.859 12.676C476.387 12.964 475.863 13.108 475.287 13.108C474.783 13.108 474.335 13.008 473.943 12.808C473.551 12.6 473.231 12.344 472.983 12.04V16.144H471.615V6.388H472.983V7.36ZM477.003 9.664C477.003 9.208 476.907 8.816 476.715 8.488C476.531 8.152 476.283 7.9 475.971 7.732C475.667 7.556 475.339 7.468 474.987 7.468C474.643 7.468 474.315 7.556 474.003 7.732C473.699 7.908 473.451 8.164 473.259 8.5C473.075 8.836 472.983 9.232 472.983 9.688C472.983 10.144 473.075 10.544 473.259 10.888C473.451 11.224 473.699 11.48 474.003 11.656C474.315 11.832 474.643 11.92 474.987 11.92C475.339 11.92 475.667 11.832 475.971 11.656C476.283 11.472 476.531 11.208 476.715 10.864C476.907 10.52 477.003 10.12 477.003 9.664ZM481.116 4.12V13H479.748V4.12H481.116ZM488.972 9.532C488.972 9.78 488.956 10.004 488.924 10.204H483.872C483.912 10.732 484.108 11.156 484.46 11.476C484.812 11.796 485.244 11.956 485.756 11.956C486.492 11.956 487.012 11.648 487.316 11.032H488.792C488.592 11.64 488.228 12.14 487.7 12.532C487.18 12.916 486.532 13.108 485.756 13.108C485.124 13.108 484.556 12.968 484.052 12.688C483.556 12.4 483.164 12 482.876 11.488C482.596 10.968 482.456 10.368 482.456 9.688C482.456 9.008 482.592 8.412 482.864 7.9C483.144 7.38 483.532 6.98 484.028 6.7C484.532 6.42 485.108 6.28 485.756 6.28C486.38 6.28 486.936 6.416 487.424 6.688C487.912 6.96 488.292 7.344 488.564 7.84C488.836 8.328 488.972 8.892 488.972 9.532ZM487.544 9.1C487.536 8.596 487.356 8.192 487.004 7.888C486.652 7.584 486.216 7.432 485.696 7.432C485.224 7.432 484.82 7.584 484.484 7.888C484.148 8.184 483.948 8.588 483.884 9.1H487.544ZM491.914 7.504V11.164C491.914 11.412 491.97 11.592 492.082 11.704C492.202 11.808 492.402 11.86 492.682 11.86H493.522V13H492.442C491.826 13 491.354 12.856 491.026 12.568C490.698 12.28 490.534 11.812 490.534 11.164V7.504H489.754V6.388H490.534V4.744H491.914V6.388H493.522V7.504H491.914ZM495.479 5.512C495.231 5.512 495.023 5.428 494.855 5.26C494.687 5.092 494.603 4.884 494.603 4.636C494.603 4.388 494.687 4.18 494.855 4.012C495.023 3.844 495.231 3.76 495.479 3.76C495.719 3.76 495.923 3.844 496.091 4.012C496.259 4.18 496.343 4.388 496.343 4.636C496.343 4.884 496.259 5.092 496.091 5.26C495.923 5.428 495.719 5.512 495.479 5.512ZM496.151 6.388V13H494.783V6.388H496.151ZM500.815 13.108C500.191 13.108 499.627 12.968 499.123 12.688C498.619 12.4 498.223 12 497.935 11.488C497.647 10.968 497.503 10.368 497.503 9.688C497.503 9.016 497.651 8.42 497.947 7.9C498.243 7.38 498.647 6.98 499.159 6.7C499.671 6.42 500.243 6.28 500.875 6.28C501.507 6.28 502.079 6.42 502.591 6.7C503.103 6.98 503.507 7.38 503.803 7.9C504.099 8.42 504.247 9.016 504.247 9.688C504.247 10.36 504.095 10.956 503.791 11.476C503.487 11.996 503.071 12.4 502.543 12.688C502.023 12.968 501.447 13.108 500.815 13.108ZM500.815 11.92C501.167 11.92 501.495 11.836 501.799 11.668C502.111 11.5 502.363 11.248 502.555 10.912C502.747 10.576 502.843 10.168 502.843 9.688C502.843 9.208 502.751 8.804 502.567 8.476C502.383 8.14 502.139 7.888 501.835 7.72C501.531 7.552 501.203 7.468 500.851 7.468C500.499 7.468 500.171 7.552 499.867 7.72C499.571 7.888 499.335 8.14 499.159 8.476C498.983 8.804 498.895 9.208 498.895 9.688C498.895 10.4 499.075 10.952 499.435 11.344C499.803 11.728 500.263 11.92 500.815 11.92ZM508.935 6.28C509.455 6.28 509.919 6.388 510.327 6.604C510.743 6.82 511.067 7.14 511.299 7.564C511.531 7.988 511.647 8.5 511.647 9.1V13H510.291V9.304C510.291 8.712 510.143 8.26 509.847 7.948C509.551 7.628 509.147 7.468 508.635 7.468C508.123 7.468 507.715 7.628 507.411 7.948C507.115 8.26 506.967 8.712 506.967 9.304V13H505.599V6.388H506.967V7.144C507.191 6.872 507.475 6.66 507.819 6.508C508.171 6.356 508.543 6.28 508.935 6.28Z" fill="black"/>
<path d="M120.624 266.66C121.512 266.66 122.288 266.832 122.952 267.176C123.624 267.512 124.14 268 124.5 268.64C124.868 269.272 125.052 270.012 125.052 270.86C125.052 271.708 124.868 272.444 124.5 273.068C124.14 273.692 123.624 274.172 122.952 274.508C122.288 274.836 121.512 275 120.624 275H117.9V266.66H120.624ZM120.624 273.884C121.6 273.884 122.348 273.62 122.868 273.092C123.388 272.564 123.648 271.82 123.648 270.86C123.648 269.892 123.388 269.136 122.868 268.592C122.348 268.048 121.6 267.776 120.624 267.776H119.268V273.884H120.624ZM125.952 271.664C125.952 271 126.088 270.412 126.36 269.9C126.64 269.388 127.016 268.992 127.488 268.712C127.968 268.424 128.496 268.28 129.072 268.28C129.592 268.28 130.044 268.384 130.428 268.592C130.82 268.792 131.132 269.044 131.364 269.348V268.388H132.744V275H131.364V274.016C131.132 274.328 130.816 274.588 130.416 274.796C130.016 275.004 129.56 275.108 129.048 275.108C128.48 275.108 127.96 274.964 127.488 274.676C127.016 274.38 126.64 273.972 126.36 273.452C126.088 272.924 125.952 272.328 125.952 271.664ZM131.364 271.688C131.364 271.232 131.268 270.836 131.076 270.5C130.892 270.164 130.648 269.908 130.344 269.732C130.04 269.556 129.712 269.468 129.36 269.468C129.008 269.468 128.68 269.556 128.376 269.732C128.072 269.9 127.824 270.152 127.632 270.488C127.448 270.816 127.356 271.208 127.356 271.664C127.356 272.12 127.448 272.52 127.632 272.864C127.824 273.208 128.072 273.472 128.376 273.656C128.688 273.832 129.016 273.92 129.36 273.92C129.712 273.92 130.04 273.832 130.344 273.656C130.648 273.48 130.892 273.224 131.076 272.888C131.268 272.544 131.364 272.144 131.364 271.688ZM140.493 268.388L136.437 278.108H135.021L136.365 274.892L133.761 268.388H135.285L137.145 273.428L139.077 268.388H140.493ZM145.218 273.14C145.986 272.476 146.59 271.932 147.03 271.508C147.478 271.076 147.85 270.628 148.146 270.164C148.442 269.7 148.59 269.236 148.59 268.772C148.59 268.292 148.474 267.916 148.242 267.644C148.018 267.372 147.662 267.236 147.174 267.236C146.702 267.236 146.334 267.388 146.07 267.692C145.814 267.988 145.678 268.388 145.662 268.892H144.342C144.366 267.98 144.638 267.284 145.158 266.804C145.686 266.316 146.354 266.072 147.162 266.072C148.034 266.072 148.714 266.312 149.202 266.792C149.698 267.272 149.946 267.912 149.946 268.712C149.946 269.288 149.798 269.844 149.502 270.38C149.214 270.908 148.866 271.384 148.458 271.808C148.058 272.224 147.546 272.708 146.922 273.26L146.382 273.74H150.186V274.88H144.354V273.884L145.218 273.14Z" fill="black"/>
<path d="M170.624 266.66C171.512 266.66 172.288 266.832 172.952 267.176C173.624 267.512 174.14 268 174.5 268.64C174.868 269.272 175.052 270.012 175.052 270.86C175.052 271.708 174.868 272.444 174.5 273.068C174.14 273.692 173.624 274.172 172.952 274.508C172.288 274.836 171.512 275 170.624 275H167.9V266.66H170.624ZM170.624 273.884C171.6 273.884 172.348 273.62 172.868 273.092C173.388 272.564 173.648 271.82 173.648 270.86C173.648 269.892 173.388 269.136 172.868 268.592C172.348 268.048 171.6 267.776 170.624 267.776H169.268V273.884H170.624ZM175.952 271.664C175.952 271 176.088 270.412 176.36 269.9C176.64 269.388 177.016 268.992 177.488 268.712C177.968 268.424 178.496 268.28 179.072 268.28C179.592 268.28 180.044 268.384 180.428 268.592C180.82 268.792 181.132 269.044 181.364 269.348V268.388H182.744V275H181.364V274.016C181.132 274.328 180.816 274.588 180.416 274.796C180.016 275.004 179.56 275.108 179.048 275.108C178.48 275.108 177.96 274.964 177.488 274.676C177.016 274.38 176.64 273.972 176.36 273.452C176.088 272.924 175.952 272.328 175.952 271.664ZM181.364 271.688C181.364 271.232 181.268 270.836 181.076 270.5C180.892 270.164 180.648 269.908 180.344 269.732C180.04 269.556 179.712 269.468 179.36 269.468C179.008 269.468 178.68 269.556 178.376 269.732C178.072 269.9 177.824 270.152 177.632 270.488C177.448 270.816 177.356 271.208 177.356 271.664C177.356 272.12 177.448 272.52 177.632 272.864C177.824 273.208 178.072 273.472 178.376 273.656C178.688 273.832 179.016 273.92 179.36 273.92C179.712 273.92 180.04 273.832 180.344 273.656C180.648 273.48 180.892 273.224 181.076 272.888C181.268 272.544 181.364 272.144 181.364 271.688ZM190.493 268.388L186.437 278.108H185.021L186.365 274.892L183.761 268.388H185.285L187.145 273.428L189.077 268.388H190.493ZM194.438 268.412C194.486 267.668 194.77 267.088 195.29 266.672C195.818 266.256 196.49 266.048 197.306 266.048C197.866 266.048 198.35 266.148 198.758 266.348C199.166 266.548 199.474 266.82 199.682 267.164C199.89 267.508 199.994 267.896 199.994 268.328C199.994 268.824 199.862 269.248 199.598 269.6C199.334 269.952 199.018 270.188 198.65 270.308V270.356C199.122 270.5 199.49 270.764 199.754 271.148C200.018 271.524 200.15 272.008 200.15 272.6C200.15 273.072 200.042 273.492 199.826 273.86C199.61 274.228 199.29 274.52 198.866 274.736C198.442 274.944 197.934 275.048 197.342 275.048C196.478 275.048 195.766 274.828 195.206 274.388C194.654 273.94 194.358 273.3 194.318 272.468H195.638C195.67 272.892 195.834 273.24 196.13 273.512C196.426 273.776 196.826 273.908 197.33 273.908C197.818 273.908 198.194 273.776 198.458 273.512C198.722 273.24 198.854 272.892 198.854 272.468C198.854 271.908 198.674 271.512 198.314 271.28C197.962 271.04 197.418 270.92 196.682 270.92H196.37V269.792H196.694C197.342 269.784 197.834 269.676 198.17 269.468C198.514 269.26 198.686 268.932 198.686 268.484C198.686 268.1 198.562 267.796 198.314 267.572C198.066 267.34 197.714 267.224 197.258 267.224C196.81 267.224 196.462 267.34 196.214 267.572C195.966 267.796 195.818 268.076 195.77 268.412H194.438Z" fill="black"/>
<path d="M220.624 266.66C221.512 266.66 222.288 266.832 222.952 267.176C223.624 267.512 224.14 268 224.5 268.64C224.868 269.272 225.052 270.012 225.052 270.86C225.052 271.708 224.868 272.444 224.5 273.068C224.14 273.692 223.624 274.172 222.952 274.508C222.288 274.836 221.512 275 220.624 275H217.9V266.66H220.624ZM220.624 273.884C221.6 273.884 222.348 273.62 222.868 273.092C223.388 272.564 223.648 271.82 223.648 270.86C223.648 269.892 223.388 269.136 222.868 268.592C222.348 268.048 221.6 267.776 220.624 267.776H219.268V273.884H220.624ZM225.952 271.664C225.952 271 226.088 270.412 226.36 269.9C226.64 269.388 227.016 268.992 227.488 268.712C227.968 268.424 228.496 268.28 229.072 268.28C229.592 268.28 230.044 268.384 230.428 268.592C230.82 268.792 231.132 269.044 231.364 269.348V268.388H232.744V275H231.364V274.016C231.132 274.328 230.816 274.588 230.416 274.796C230.016 275.004 229.56 275.108 229.048 275.108C228.48 275.108 227.96 274.964 227.488 274.676C227.016 274.38 226.64 273.972 226.36 273.452C226.088 272.924 225.952 272.328 225.952 271.664ZM231.364 271.688C231.364 271.232 231.268 270.836 231.076 270.5C230.892 270.164 230.648 269.908 230.344 269.732C230.04 269.556 229.712 269.468 229.36 269.468C229.008 269.468 228.68 269.556 228.376 269.732C228.072 269.9 227.824 270.152 227.632 270.488C227.448 270.816 227.356 271.208 227.356 271.664C227.356 272.12 227.448 272.52 227.632 272.864C227.824 273.208 228.072 273.472 228.376 273.656C228.688 273.832 229.016 273.92 229.36 273.92C229.712 273.92 230.04 273.832 230.344 273.656C230.648 273.48 230.892 273.224 231.076 272.888C231.268 272.544 231.364 272.144 231.364 271.688ZM240.493 268.388L236.437 278.108H235.021L236.365 274.892L233.761 268.388H235.285L237.145 273.428L239.077 268.388H240.493ZM244.294 273.176V272.144L248.326 266.36H249.982V271.988H251.098V273.176H249.982V275H248.638V273.176H244.294ZM248.698 267.752L245.866 271.988H248.698V267.752Z" fill="black"/>
<path d="M270.624 266.66C271.512 266.66 272.288 266.832 272.952 267.176C273.624 267.512 274.14 268 274.5 268.64C274.868 269.272 275.052 270.012 275.052 270.86C275.052 271.708 274.868 272.444 274.5 273.068C274.14 273.692 273.624 274.172 272.952 274.508C272.288 274.836 271.512 275 270.624 275H267.9V266.66H270.624ZM270.624 273.884C271.6 273.884 272.348 273.62 272.868 273.092C273.388 272.564 273.648 271.82 273.648 270.86C273.648 269.892 273.388 269.136 272.868 268.592C272.348 268.048 271.6 267.776 270.624 267.776H269.268V273.884H270.624ZM275.952 271.664C275.952 271 276.088 270.412 276.36 269.9C276.64 269.388 277.016 268.992 277.488 268.712C277.968 268.424 278.496 268.28 279.072 268.28C279.592 268.28 280.044 268.384 280.428 268.592C280.82 268.792 281.132 269.044 281.364 269.348V268.388H282.744V275H281.364V274.016C281.132 274.328 280.816 274.588 280.416 274.796C280.016 275.004 279.56 275.108 279.048 275.108C278.48 275.108 277.96 274.964 277.488 274.676C277.016 274.38 276.64 273.972 276.36 273.452C276.088 272.924 275.952 272.328 275.952 271.664ZM281.364 271.688C281.364 271.232 281.268 270.836 281.076 270.5C280.892 270.164 280.648 269.908 280.344 269.732C280.04 269.556 279.712 269.468 279.36 269.468C279.008 269.468 278.68 269.556 278.376 269.732C278.072 269.9 277.824 270.152 277.632 270.488C277.448 270.816 277.356 271.208 277.356 271.664C277.356 272.12 277.448 272.52 277.632 272.864C277.824 273.208 278.072 273.472 278.376 273.656C278.688 273.832 279.016 273.92 279.36 273.92C279.712 273.92 280.04 273.832 280.344 273.656C280.648 273.48 280.892 273.224 281.076 272.888C281.268 272.544 281.364 272.144 281.364 271.688ZM290.493 268.388L286.437 278.108H285.021L286.365 274.892L283.761 268.388H285.285L287.145 273.428L289.077 268.388H290.493ZM300.102 267.428H296.082V269.816C296.25 269.592 296.498 269.404 296.826 269.252C297.162 269.1 297.518 269.024 297.894 269.024C298.566 269.024 299.11 269.168 299.526 269.456C299.95 269.744 300.25 270.108 300.426 270.548C300.61 270.988 300.702 271.452 300.702 271.94C300.702 272.532 300.586 273.06 300.354 273.524C300.13 273.98 299.79 274.34 299.334 274.604C298.886 274.868 298.334 275 297.678 275C296.806 275 296.106 274.784 295.578 274.352C295.05 273.92 294.734 273.348 294.63 272.636H295.962C296.05 273.012 296.246 273.312 296.55 273.536C296.854 273.752 297.234 273.86 297.69 273.86C298.258 273.86 298.682 273.688 298.962 273.344C299.25 273 299.394 272.544 299.394 271.976C299.394 271.4 299.25 270.96 298.962 270.656C298.674 270.344 298.25 270.188 297.69 270.188C297.298 270.188 296.966 270.288 296.694 270.488C296.43 270.68 296.238 270.944 296.118 271.28H294.822V266.228H300.102V267.428Z" fill="black"/>
<path d="M322.624 266.66C323.512 266.66 324.288 266.832 324.952 267.176C325.624 267.512 326.14 268 326.5 268.64C326.868 269.272 327.052 270.012 327.052 270.86C327.052 271.708 326.868 272.444 326.5 273.068C326.14 273.692 325.624 274.172 324.952 274.508C324.288 274.836 323.512 275 322.624 275H319.9V266.66H322.624ZM322.624 273.884C323.6 273.884 324.348 273.62 324.868 273.092C325.388 272.564 325.648 271.82 325.648 270.86C325.648 269.892 325.388 269.136 324.868 268.592C324.348 268.048 323.6 267.776 322.624 267.776H321.268V273.884H322.624ZM327.952 271.664C327.952 271 328.088 270.412 328.36 269.9C328.64 269.388 329.016 268.992 329.488 268.712C329.968 268.424 330.496 268.28 331.072 268.28C331.592 268.28 332.044 268.384 332.428 268.592C332.82 268.792 333.132 269.044 333.364 269.348V268.388H334.744V275H333.364V274.016C333.132 274.328 332.816 274.588 332.416 274.796C332.016 275.004 331.56 275.108 331.048 275.108C330.48 275.108 329.96 274.964 329.488 274.676C329.016 274.38 328.64 273.972 328.36 273.452C328.088 272.924 327.952 272.328 327.952 271.664ZM333.364 271.688C333.364 271.232 333.268 270.836 333.076 270.5C332.892 270.164 332.648 269.908 332.344 269.732C332.04 269.556 331.712 269.468 331.36 269.468C331.008 269.468 330.68 269.556 330.376 269.732C330.072 269.9 329.824 270.152 329.632 270.488C329.448 270.816 329.356 271.208 329.356 271.664C329.356 272.12 329.448 272.52 329.632 272.864C329.824 273.208 330.072 273.472 330.376 273.656C330.688 273.832 331.016 273.92 331.36 273.92C331.712 273.92 332.04 273.832 332.344 273.656C332.648 273.48 332.892 273.224 333.076 272.888C333.268 272.544 333.364 272.144 333.364 271.688ZM342.493 268.388L338.437 278.108H337.021L338.365 274.892L335.761 268.388H337.285L339.145 273.428L341.077 268.388H342.493ZM351.166 268.28C351.078 267.912 350.918 267.636 350.686 267.452C350.454 267.268 350.13 267.176 349.714 267.176C349.082 267.176 348.61 267.42 348.298 267.908C347.986 268.388 347.822 269.188 347.806 270.308C348.014 269.956 348.318 269.684 348.718 269.492C349.118 269.3 349.55 269.204 350.014 269.204C350.542 269.204 351.006 269.32 351.406 269.552C351.814 269.776 352.13 270.104 352.354 270.536C352.586 270.968 352.702 271.484 352.702 272.084C352.702 272.644 352.59 273.144 352.366 273.584C352.15 274.024 351.826 274.372 351.394 274.628C350.962 274.876 350.442 275 349.834 275C349.01 275 348.362 274.82 347.89 274.46C347.426 274.092 347.098 273.576 346.906 272.912C346.722 272.248 346.63 271.42 346.63 270.428C346.63 267.5 347.662 266.036 349.726 266.036C350.526 266.036 351.154 266.252 351.61 266.684C352.074 267.116 352.346 267.648 352.426 268.28H351.166ZM349.714 270.356C349.226 270.356 348.81 270.504 348.466 270.8C348.13 271.088 347.962 271.508 347.962 272.06C347.962 272.612 348.118 273.052 348.43 273.38C348.75 273.7 349.194 273.86 349.762 273.86C350.266 273.86 350.662 273.704 350.95 273.392C351.246 273.08 351.394 272.664 351.394 272.144C351.394 271.6 351.25 271.168 350.962 270.848C350.682 270.52 350.266 270.356 349.714 270.356Z" fill="black"/>
<path d="M371.624 266.66C372.512 266.66 373.288 266.832 373.952 267.176C374.624 267.512 375.14 268 375.5 268.64C375.868 269.272 376.052 270.012 376.052 270.86C376.052 271.708 375.868 272.444 375.5 273.068C375.14 273.692 374.624 274.172 373.952 274.508C373.288 274.836 372.512 275 371.624 275H368.9V266.66H371.624ZM371.624 273.884C372.6 273.884 373.348 273.62 373.868 273.092C374.388 272.564 374.648 271.82 374.648 270.86C374.648 269.892 374.388 269.136 373.868 268.592C373.348 268.048 372.6 267.776 371.624 267.776H370.268V273.884H371.624ZM376.952 271.664C376.952 271 377.088 270.412 377.36 269.9C377.64 269.388 378.016 268.992 378.488 268.712C378.968 268.424 379.496 268.28 380.072 268.28C380.592 268.28 381.044 268.384 381.428 268.592C381.82 268.792 382.132 269.044 382.364 269.348V268.388H383.744V275H382.364V274.016C382.132 274.328 381.816 274.588 381.416 274.796C381.016 275.004 380.56 275.108 380.048 275.108C379.48 275.108 378.96 274.964 378.488 274.676C378.016 274.38 377.64 273.972 377.36 273.452C377.088 272.924 376.952 272.328 376.952 271.664ZM382.364 271.688C382.364 271.232 382.268 270.836 382.076 270.5C381.892 270.164 381.648 269.908 381.344 269.732C381.04 269.556 380.712 269.468 380.36 269.468C380.008 269.468 379.68 269.556 379.376 269.732C379.072 269.9 378.824 270.152 378.632 270.488C378.448 270.816 378.356 271.208 378.356 271.664C378.356 272.12 378.448 272.52 378.632 272.864C378.824 273.208 379.072 273.472 379.376 273.656C379.688 273.832 380.016 273.92 380.36 273.92C380.712 273.92 381.04 273.832 381.344 273.656C381.648 273.48 381.892 273.224 382.076 272.888C382.268 272.544 382.364 272.144 382.364 271.688ZM391.493 268.388L387.437 278.108H386.021L387.365 274.892L384.761 268.388H386.285L388.145 273.428L390.077 268.388H391.493ZM401.006 267.308L397.67 275H396.29L399.662 267.452H395.222V266.288H401.006V267.308Z" fill="black"/>
<path d="M40.72 257.512C40.72 256.128 40.952 255.048 41.416 254.272C41.888 253.488 42.696 253.096 43.84 253.096C44.984 253.096 45.788 253.488 46.252 254.272C46.724 255.048 46.96 256.128 46.96 257.512C46.96 258.912 46.724 260.008 46.252 260.8C45.788 261.584 44.984 261.976 43.84 261.976C42.696 261.976 41.888 261.584 41.416 260.8C40.952 260.008 40.72 258.912 40.72 257.512ZM45.616 257.512C45.616 256.864 45.572 256.316 45.484 255.868C45.404 255.42 45.236 255.056 44.98 254.776C44.724 254.488 44.344 254.344 43.84 254.344C43.336 254.344 42.956 254.488 42.7 254.776C42.444 255.056 42.272 255.42 42.184 255.868C42.104 256.316 42.064 256.864 42.064 257.512C42.064 258.184 42.104 258.748 42.184 259.204C42.264 259.66 42.432 260.028 42.688 260.308C42.952 260.588 43.336 260.728 43.84 260.728C44.344 260.728 44.724 260.588 44.98 260.308C45.244 260.028 45.416 259.66 45.496 259.204C45.576 258.748 45.616 258.184 45.616 257.512Z" fill="black"/>
<path d="M40.552 198.176V197.144L44.584 191.36H46.24V196.988H47.356V198.176H46.24V200H44.896V198.176H40.552ZM44.956 192.752L42.124 196.988H44.956V192.752Z" fill="black"/>
<path d="M41.476 230.14C42.244 229.476 42.848 228.932 43.288 228.508C43.736 228.076 44.108 227.628 44.404 227.164C44.7 226.7 44.848 226.236 44.848 225.772C44.848 225.292 44.732 224.916 44.5 224.644C44.276 224.372 43.92 224.236 43.432 224.236C42.96 224.236 42.592 224.388 42.328 224.692C42.072 224.988 41.936 225.388 41.92 225.892H40.6C40.624 224.98 40.896 224.284 41.416 223.804C41.944 223.316 42.612 223.072 43.42 223.072C44.292 223.072 44.972 223.312 45.46 223.792C45.956 224.272 46.204 224.912 46.204 225.712C46.204 226.288 46.056 226.844 45.76 227.38C45.472 227.908 45.124 228.384 44.716 228.808C44.316 229.224 43.804 229.708 43.18 230.26L42.64 230.74H46.444V231.88H40.612V230.884L41.476 230.14Z" fill="black"/>
<path d="M4.66 168.712L5.776 168.712L5.776 170.932L13 170.932L13 172.3L5.776 172.3L5.776 174.532L4.66 174.532L4.66 168.712ZM9.664 167.783C9 167.783 8.412 167.647 7.9 167.375C7.388 167.095 6.992 166.719 6.712 166.247C6.424 165.767 6.28 165.239 6.28 164.663C6.28 164.143 6.384 163.691 6.592 163.307C6.792 162.915 7.044 162.603 7.348 162.371L6.388 162.371L6.388 160.991L13 160.991L13 162.371L12.016 162.371C12.328 162.603 12.588 162.919 12.796 163.319C13.004 163.719 13.108 164.175 13.108 164.687C13.108 165.255 12.964 165.775 12.676 166.247C12.38 166.719 11.972 167.095 11.452 167.375C10.924 167.647 10.328 167.783 9.664 167.783ZM9.688 162.371C9.232 162.371 8.836 162.467 8.5 162.659C8.164 162.843 7.908 163.087 7.732 163.391C7.556 163.695 7.468 164.023 7.468 164.375C7.468 164.727 7.556 165.055 7.732 165.359C7.9 165.663 8.152 165.911 8.488 166.103C8.816 166.287 9.208 166.379 9.664 166.379C10.12 166.379 10.52 166.287 10.864 166.103C11.208 165.911 11.472 165.663 11.656 165.359C11.832 165.047 11.92 164.719 11.92 164.375C11.92 164.023 11.832 163.695 11.656 163.391C11.48 163.087 11.224 162.843 10.888 162.659C10.544 162.467 10.144 162.371 9.688 162.371ZM13.108 156.794C13.108 157.314 13.016 157.782 12.832 158.198C12.64 158.606 12.384 158.93 12.064 159.17C11.736 159.41 11.372 159.538 10.972 159.554L10.972 158.138C11.252 158.114 11.488 157.982 11.68 157.742C11.864 157.494 11.956 157.186 11.956 156.818C11.956 156.434 11.884 156.138 11.74 155.93C11.588 155.714 11.396 155.606 11.164 155.606C10.916 155.606 10.732 155.726 10.612 155.966C10.492 156.198 10.36 156.57 10.216 157.082C10.08 157.578 9.948 157.982 9.82 158.294C9.692 158.606 9.496 158.878 9.232 159.11C8.968 159.334 8.62 159.446 8.188 159.446C7.836 159.446 7.516 159.342 7.228 159.134C6.932 158.926 6.7 158.63 6.532 158.246C6.364 157.854 6.28 157.406 6.28 156.902C6.28 156.15 6.472 155.546 6.856 155.09C7.232 154.626 7.748 154.378 8.404 154.346L8.404 155.714C8.108 155.738 7.872 155.858 7.696 156.074C7.52 156.29 7.432 156.582 7.432 156.95C7.432 157.31 7.5 157.586 7.636 157.778C7.772 157.97 7.952 158.066 8.176 158.066C8.352 158.066 8.5 158.002 8.62 157.874C8.74 157.746 8.836 157.59 8.908 157.406C8.972 157.222 9.056 156.95 9.16 156.59C9.288 156.11 9.42 155.718 9.556 155.414C9.684 155.102 9.876 154.834 10.132 154.61C10.388 154.386 10.728 154.27 11.152 154.262C11.528 154.262 11.864 154.366 12.16 154.574C12.456 154.782 12.688 155.078 12.856 155.462C13.024 155.838 13.108 156.282 13.108 156.794ZM9.7 150.168L13 147.12L13 148.968L10.156 151.416L13 151.416L13 152.784L4.12 152.784L4.12 151.416L9.28 151.416L6.388 149.016L6.388 147.12L9.7 150.168Z" fill="black"/>
<path d="M45.424 163.28C45.336 162.912 45.176 162.636 44.944 162.452C44.712 162.268 44.388 162.176 43.972 162.176C43.34 162.176 42.868 162.42 42.556 162.908C42.244 163.388 42.08 164.188 42.064 165.308C42.272 164.956 42.576 164.684 42.976 164.492C43.376 164.3 43.808 164.204 44.272 164.204C44.8 164.204 45.264 164.32 45.664 164.552C46.072 164.776 46.388 165.104 46.612 165.536C46.844 165.968 46.96 166.484 46.96 167.084C46.96 167.644 46.848 168.144 46.624 168.584C46.408 169.024 46.084 169.372 45.652 169.628C45.22 169.876 44.7 170 44.092 170C43.268 170 42.62 169.82 42.148 169.46C41.684 169.092 41.356 168.576 41.164 167.912C40.98 167.248 40.888 166.42 40.888 165.428C40.888 162.5 41.92 161.036 43.984 161.036C44.784 161.036 45.412 161.252 45.868 161.684C46.332 162.116 46.604 162.648 46.684 163.28H45.424ZM43.972 165.356C43.484 165.356 43.068 165.504 42.724 165.8C42.388 166.088 42.22 166.508 42.22 167.06C42.22 167.612 42.376 168.052 42.688 168.38C43.008 168.7 43.452 168.86 44.02 168.86C44.524 168.86 44.92 168.704 45.208 168.392C45.504 168.08 45.652 167.664 45.652 167.144C45.652 166.6 45.508 166.168 45.22 165.848C44.94 165.52 44.524 165.356 43.972 165.356Z" fill="black"/>
<path d="M42.196 133.428C41.364 133.012 40.948 132.356 40.948 131.46C40.948 131.028 41.056 130.632 41.272 130.272C41.488 129.912 41.812 129.628 42.244 129.42C42.676 129.204 43.204 129.096 43.828 129.096C44.444 129.096 44.968 129.204 45.4 129.42C45.84 129.628 46.168 129.912 46.384 130.272C46.6 130.632 46.708 131.028 46.708 131.46C46.708 131.908 46.592 132.304 46.36 132.648C46.136 132.984 45.836 133.244 45.46 133.428C45.916 133.596 46.276 133.872 46.54 134.256C46.804 134.632 46.936 135.076 46.936 135.588C46.936 136.108 46.804 136.568 46.54 136.968C46.276 137.368 45.908 137.676 45.436 137.892C44.964 138.108 44.428 138.216 43.828 138.216C43.228 138.216 42.692 138.108 42.22 137.892C41.756 137.676 41.392 137.368 41.128 136.968C40.864 136.568 40.732 136.108 40.732 135.588C40.732 135.068 40.864 134.62 41.128 134.244C41.392 133.868 41.748 133.596 42.196 133.428ZM45.4 131.628C45.4 131.18 45.26 130.836 44.98 130.596C44.7 130.356 44.316 130.236 43.828 130.236C43.348 130.236 42.968 130.356 42.688 130.596C42.408 130.836 42.268 131.184 42.268 131.64C42.268 132.04 42.412 132.368 42.7 132.624C42.996 132.872 43.372 132.996 43.828 132.996C44.284 132.996 44.66 132.868 44.956 132.612C45.252 132.356 45.4 132.028 45.4 131.628ZM43.828 134.028C43.3 134.028 42.868 134.16 42.532 134.424C42.204 134.68 42.04 135.052 42.04 135.54C42.04 135.996 42.2 136.368 42.52 136.656C42.84 136.936 43.276 137.076 43.828 137.076C44.372 137.076 44.8 136.932 45.112 136.644C45.432 136.356 45.592 135.988 45.592 135.54C45.592 135.06 45.428 134.688 45.1 134.424C44.78 134.16 44.356 134.028 43.828 134.028Z" fill="black"/>
<path d="M38.54 102.5V101.252H41.036V110H39.656V102.5H38.54ZM42.9153 105.512C42.9153 104.128 43.1473 103.048 43.6113 102.272C44.0833 101.488 44.8913 101.096 46.0353 101.096C47.1793 101.096 47.9833 101.488 48.4473 102.272C48.9193 103.048 49.1553 104.128 49.1553 105.512C49.1553 106.912 48.9193 108.008 48.4473 108.8C47.9833 109.584 47.1793 109.976 46.0353 109.976C44.8913 109.976 44.0833 109.584 43.6113 108.8C43.1473 108.008 42.9153 106.912 42.9153 105.512ZM47.8113 105.512C47.8113 104.864 47.7673 104.316 47.6793 103.868C47.5993 103.42 47.4313 103.056 47.1753 102.776C46.9193 102.488 46.5393 102.344 46.0353 102.344C45.5313 102.344 45.1513 102.488 44.8953 102.776C44.6393 103.056 44.4673 103.42 44.3793 103.868C44.2993 104.316 44.2593 104.864 44.2593 105.512C44.2593 106.184 44.2993 106.748 44.3793 107.204C44.4593 107.66 44.6273 108.028 44.8833 108.308C45.1473 108.588 45.5313 108.728 46.0353 108.728C46.5393 108.728 46.9193 108.588 47.1753 108.308C47.4393 108.028 47.6113 107.66 47.6913 107.204C47.7713 106.748 47.8113 106.184 47.8113 105.512Z" fill="black"/>
<path d="M38.54 73.5V72.252H41.036V81H39.656V73.5H38.54ZM43.6713 79.14C44.4393 78.476 45.0433 77.932 45.4833 77.508C45.9313 77.076 46.3033 76.628 46.5993 76.164C46.8953 75.7 47.0433 75.236 47.0433 74.772C47.0433 74.292 46.9273 73.916 46.6953 73.644C46.4713 73.372 46.1153 73.236 45.6273 73.236C45.1553 73.236 44.7873 73.388 44.5233 73.692C44.2673 73.988 44.1313 74.388 44.1153 74.892H42.7953C42.8193 73.98 43.0913 73.284 43.6113 72.804C44.1393 72.316 44.8073 72.072 45.6153 72.072C46.4873 72.072 47.1673 72.312 47.6553 72.792C48.1513 73.272 48.3993 73.912 48.3993 74.712C48.3993 75.288 48.2513 75.844 47.9553 76.38C47.6673 76.908 47.3193 77.384 46.9113 77.808C46.5113 78.224 45.9993 78.708 45.3753 79.26L44.8353 79.74H48.6393V80.88H42.8073V79.884L43.6713 79.14Z" fill="black"/>
<path d="M422.624 266.66C423.512 266.66 424.288 266.832 424.952 267.176C425.624 267.512 426.14 268 426.5 268.64C426.868 269.272 427.052 270.012 427.052 270.86C427.052 271.708 426.868 272.444 426.5 273.068C426.14 273.692 425.624 274.172 424.952 274.508C424.288 274.836 423.512 275 422.624 275H419.9V266.66H422.624ZM422.624 273.884C423.6 273.884 424.348 273.62 424.868 273.092C425.388 272.564 425.648 271.82 425.648 270.86C425.648 269.892 425.388 269.136 424.868 268.592C424.348 268.048 423.6 267.776 422.624 267.776H421.268V273.884H422.624ZM427.952 271.664C427.952 271 428.088 270.412 428.36 269.9C428.64 269.388 429.016 268.992 429.488 268.712C429.968 268.424 430.496 268.28 431.072 268.28C431.592 268.28 432.044 268.384 432.428 268.592C432.82 268.792 433.132 269.044 433.364 269.348V268.388H434.744V275H433.364V274.016C433.132 274.328 432.816 274.588 432.416 274.796C432.016 275.004 431.56 275.108 431.048 275.108C430.48 275.108 429.96 274.964 429.488 274.676C429.016 274.38 428.64 273.972 428.36 273.452C428.088 272.924 427.952 272.328 427.952 271.664ZM433.364 271.688C433.364 271.232 433.268 270.836 433.076 270.5C432.892 270.164 432.648 269.908 432.344 269.732C432.04 269.556 431.712 269.468 431.36 269.468C431.008 269.468 430.68 269.556 430.376 269.732C430.072 269.9 429.824 270.152 429.632 270.488C429.448 270.816 429.356 271.208 429.356 271.664C429.356 272.12 429.448 272.52 429.632 272.864C429.824 273.208 430.072 273.472 430.376 273.656C430.688 273.832 431.016 273.92 431.36 273.92C431.712 273.92 432.04 273.832 432.344 273.656C432.648 273.48 432.892 273.224 433.076 272.888C433.268 272.544 433.364 272.144 433.364 271.688ZM442.493 268.388L438.437 278.108H437.021L438.365 274.892L435.761 268.388H437.285L439.145 273.428L441.077 268.388H442.493ZM447.938 270.428C447.106 270.012 446.69 269.356 446.69 268.46C446.69 268.028 446.798 267.632 447.014 267.272C447.23 266.912 447.554 266.628 447.986 266.42C448.418 266.204 448.946 266.096 449.57 266.096C450.186 266.096 450.71 266.204 451.142 266.42C451.582 266.628 451.91 266.912 452.126 267.272C452.342 267.632 452.45 268.028 452.45 268.46C452.45 268.908 452.334 269.304 452.102 269.648C451.878 269.984 451.578 270.244 451.202 270.428C451.658 270.596 452.018 270.872 452.282 271.256C452.546 271.632 452.678 272.076 452.678 272.588C452.678 273.108 452.546 273.568 452.282 273.968C452.018 274.368 451.65 274.676 451.178 274.892C450.706 275.108 450.17 275.216 449.57 275.216C448.97 275.216 448.434 275.108 447.962 274.892C447.498 274.676 447.134 274.368 446.87 273.968C446.606 273.568 446.474 273.108 446.474 272.588C446.474 272.068 446.606 271.62 446.87 271.244C447.134 270.868 447.49 270.596 447.938 270.428ZM451.142 268.628C451.142 268.18 451.002 267.836 450.722 267.596C450.442 267.356 450.058 267.236 449.57 267.236C449.09 267.236 448.71 267.356 448.43 267.596C448.15 267.836 448.01 268.184 448.01 268.64C448.01 269.04 448.154 269.368 448.442 269.624C448.738 269.872 449.114 269.996 449.57 269.996C450.026 269.996 450.402 269.868 450.698 269.612C450.994 269.356 451.142 269.028 451.142 268.628ZM449.57 271.028C449.042 271.028 448.61 271.16 448.274 271.424C447.946 271.68 447.782 272.052 447.782 272.54C447.782 272.996 447.942 273.368 448.262 273.656C448.582 273.936 449.018 274.076 449.57 274.076C450.114 274.076 450.542 273.932 450.854 273.644C451.174 273.356 451.334 272.988 451.334 272.54C451.334 272.06 451.17 271.688 450.842 271.424C450.522 271.16 450.098 271.028 449.57 271.028Z" fill="black"/>
<path d="M472.624 266.66C473.512 266.66 474.288 266.832 474.952 267.176C475.624 267.512 476.14 268 476.5 268.64C476.868 269.272 477.052 270.012 477.052 270.86C477.052 271.708 476.868 272.444 476.5 273.068C476.14 273.692 475.624 274.172 474.952 274.508C474.288 274.836 473.512 275 472.624 275H469.9V266.66H472.624ZM472.624 273.884C473.6 273.884 474.348 273.62 474.868 273.092C475.388 272.564 475.648 271.82 475.648 270.86C475.648 269.892 475.388 269.136 474.868 268.592C474.348 268.048 473.6 267.776 472.624 267.776H471.268V273.884H472.624ZM477.952 271.664C477.952 271 478.088 270.412 478.36 269.9C478.64 269.388 479.016 268.992 479.488 268.712C479.968 268.424 480.496 268.28 481.072 268.28C481.592 268.28 482.044 268.384 482.428 268.592C482.82 268.792 483.132 269.044 483.364 269.348V268.388H484.744V275H483.364V274.016C483.132 274.328 482.816 274.588 482.416 274.796C482.016 275.004 481.56 275.108 481.048 275.108C480.48 275.108 479.96 274.964 479.488 274.676C479.016 274.38 478.64 273.972 478.36 273.452C478.088 272.924 477.952 272.328 477.952 271.664ZM483.364 271.688C483.364 271.232 483.268 270.836 483.076 270.5C482.892 270.164 482.648 269.908 482.344 269.732C482.04 269.556 481.712 269.468 481.36 269.468C481.008 269.468 480.68 269.556 480.376 269.732C480.072 269.9 479.824 270.152 479.632 270.488C479.448 270.816 479.356 271.208 479.356 271.664C479.356 272.12 479.448 272.52 479.632 272.864C479.824 273.208 480.072 273.472 480.376 273.656C480.688 273.832 481.016 273.92 481.36 273.92C481.712 273.92 482.04 273.832 482.344 273.656C482.648 273.48 482.892 273.224 483.076 272.888C483.268 272.544 483.364 272.144 483.364 271.688ZM492.493 268.388L488.437 278.108H487.021L488.365 274.892L485.761 268.388H487.285L489.145 273.428L491.077 268.388H492.493ZM498.166 272.624C498.246 273.024 498.418 273.328 498.682 273.536C498.946 273.744 499.302 273.848 499.75 273.848C500.318 273.848 500.734 273.624 500.998 273.176C501.262 272.728 501.394 271.964 501.394 270.884C501.202 271.156 500.93 271.368 500.578 271.52C500.234 271.664 499.858 271.736 499.45 271.736C498.93 271.736 498.458 271.632 498.034 271.424C497.61 271.208 497.274 270.892 497.026 270.476C496.786 270.052 496.666 269.54 496.666 268.94C496.666 268.06 496.922 267.36 497.434 266.84C497.954 266.312 498.666 266.048 499.57 266.048C500.658 266.048 501.43 266.412 501.886 267.14C502.35 267.86 502.582 268.968 502.582 270.464C502.582 271.496 502.494 272.34 502.318 272.996C502.15 273.652 501.854 274.148 501.43 274.484C501.006 274.82 500.418 274.988 499.666 274.988C498.81 274.988 498.15 274.764 497.686 274.316C497.222 273.868 496.962 273.304 496.906 272.624H498.166ZM499.69 270.584C500.17 270.584 500.546 270.436 500.818 270.14C501.098 269.836 501.238 269.436 501.238 268.94C501.238 268.388 501.09 267.96 500.794 267.656C500.506 267.344 500.11 267.188 499.606 267.188C499.102 267.188 498.702 267.348 498.406 267.668C498.118 267.98 497.974 268.392 497.974 268.904C497.974 269.392 498.114 269.796 498.394 270.116C498.682 270.428 499.114 270.584 499.69 270.584Z" fill="black"/>
<path d="M519.624 266.66C520.512 266.66 521.288 266.832 521.952 267.176C522.624 267.512 523.14 268 523.5 268.64C523.868 269.272 524.052 270.012 524.052 270.86C524.052 271.708 523.868 272.444 523.5 273.068C523.14 273.692 522.624 274.172 521.952 274.508C521.288 274.836 520.512 275 519.624 275H516.9V266.66H519.624ZM519.624 273.884C520.6 273.884 521.348 273.62 521.868 273.092C522.388 272.564 522.648 271.82 522.648 270.86C522.648 269.892 522.388 269.136 521.868 268.592C521.348 268.048 520.6 267.776 519.624 267.776H518.268V273.884H519.624ZM524.952 271.664C524.952 271 525.088 270.412 525.36 269.9C525.64 269.388 526.016 268.992 526.488 268.712C526.968 268.424 527.496 268.28 528.072 268.28C528.592 268.28 529.044 268.384 529.428 268.592C529.82 268.792 530.132 269.044 530.364 269.348V268.388H531.744V275H530.364V274.016C530.132 274.328 529.816 274.588 529.416 274.796C529.016 275.004 528.56 275.108 528.048 275.108C527.48 275.108 526.96 274.964 526.488 274.676C526.016 274.38 525.64 273.972 525.36 273.452C525.088 272.924 524.952 272.328 524.952 271.664ZM530.364 271.688C530.364 271.232 530.268 270.836 530.076 270.5C529.892 270.164 529.648 269.908 529.344 269.732C529.04 269.556 528.712 269.468 528.36 269.468C528.008 269.468 527.68 269.556 527.376 269.732C527.072 269.9 526.824 270.152 526.632 270.488C526.448 270.816 526.356 271.208 526.356 271.664C526.356 272.12 526.448 272.52 526.632 272.864C526.824 273.208 527.072 273.472 527.376 273.656C527.688 273.832 528.016 273.92 528.36 273.92C528.712 273.92 529.04 273.832 529.344 273.656C529.648 273.48 529.892 273.224 530.076 272.888C530.268 272.544 530.364 272.144 530.364 271.688ZM539.493 268.388L535.437 278.108H534.021L535.365 274.892L532.761 268.388H534.285L536.145 273.428L538.077 268.388H539.493ZM543.282 267.5V266.252H545.778V275H544.398V267.5H543.282ZM547.658 270.512C547.658 269.128 547.89 268.048 548.354 267.272C548.826 266.488 549.634 266.096 550.778 266.096C551.922 266.096 552.726 266.488 553.19 267.272C553.662 268.048 553.898 269.128 553.898 270.512C553.898 271.912 553.662 273.008 553.19 273.8C552.726 274.584 551.922 274.976 550.778 274.976C549.634 274.976 548.826 274.584 548.354 273.8C547.89 273.008 547.658 271.912 547.658 270.512ZM552.554 270.512C552.554 269.864 552.51 269.316 552.422 268.868C552.342 268.42 552.174 268.056 551.918 267.776C551.662 267.488 551.282 267.344 550.778 267.344C550.274 267.344 549.894 267.488 549.638 267.776C549.382 268.056 549.21 268.42 549.122 268.868C549.042 269.316 549.002 269.864 549.002 270.512C549.002 271.184 549.042 271.748 549.122 272.204C549.202 272.66 549.37 273.028 549.626 273.308C549.89 273.588 550.274 273.728 550.778 273.728C551.282 273.728 551.662 273.588 551.918 273.308C552.182 273.028 552.354 272.66 552.434 272.204C552.514 271.748 552.554 271.184 552.554 270.512Z" fill="black"/>
<line x1="81.772" y1="109.917" x2="535.402" y2="243.889" stroke="#8E8E8E" stroke-width="2"/>
<circle cx="133" cy="125" r="4" fill="#8E8E8E"/>
<circle cx="185" cy="140" r="4" fill="#8E8E8E"/>
<circle cx="234" cy="155" r="4" fill="#8E8E8E"/>
<circle cx="284" cy="169" r="4" fill="#8E8E8E"/>
<circle cx="334" cy="185" r="4" fill="#8E8E8E"/>
<circle cx="386" cy="200" r="4" fill="#8E8E8E"/>
<circle cx="435" cy="215" r="4" fill="#8E8E8E"/>
<line x1="95" y1="9" x2="134" y2="9" stroke="#51CE3C" stroke-width="2"/>
<circle cx="115" cy="9" r="4" fill="#54D93E"/>
<line x1="83.0518" y1="109.433" x2="129.398" y2="137.147" stroke="#51CE3C" stroke-width="2"/>
<line x1="133.458" y1="139.211" x2="183.444" y2="129.092" stroke="#51CE3C" stroke-width="2"/>
<line x1="283.952" y1="184.383" x2="383.843" y2="179.713" stroke="#51CE3C" stroke-width="2"/>
<line x1="184.509" y1="128.838" x2="234.594" y2="138.459" stroke="#51CE3C" stroke-width="2"/>
<line x1="233.837" y1="139.06" x2="284.525" y2="184.39" stroke="#51CE3C" stroke-width="2"/>
<line x1="384.449" y1="178.107" x2="434.464" y2="203.295" stroke="#51CE3C" stroke-width="2"/>
<line x1="434.449" y1="203.107" x2="484.465" y2="228.295" stroke="#51CE3C" stroke-width="2"/>
<line x1="482.6" y1="228.233" x2="536.016" y2="245.048" stroke="#51CE3C" stroke-width="2"/>
<circle cx="83.4847" cy="109.486" r="4" transform="rotate(30.8782 83.4847 109.486)" fill="#54D93E"/>
<circle cx="132.485" cy="139.486" r="4" transform="rotate(30.8782 132.485 139.486)" fill="#54D93E"/>
<circle cx="184.485" cy="128.486" r="4" transform="rotate(30.8782 184.485 128.486)" fill="#54D93E"/>
<circle cx="233.485" cy="138.486" r="4" transform="rotate(30.8782 233.485 138.486)" fill="#54D93E"/>
<circle cx="384.485" cy="179.486" r="4" transform="rotate(30.8782 384.485 179.486)" fill="#54D93E"/>
<circle cx="484.485" cy="228.486" r="4" transform="rotate(30.8782 484.485 228.486)" fill="#54D93E"/>
<circle cx="535.486" cy="245.486" r="4" transform="rotate(30.8782 535.486 245.486)" fill="#54D93E"/>
<circle cx="434.485" cy="203.486" r="4" transform="rotate(30.8782 434.485 203.486)" fill="#54D93E"/>
<circle cx="283.484" cy="183.486" r="4" transform="rotate(30.8782 283.484 183.486)" fill="#54D93E"/>
<line x1="321" y1="9" x2="360" y2="9" stroke="#8E8E8E" stroke-width="2"/>
<circle cx="341" cy="9" r="4" fill="#8E8E8E"/>
</svg>
