<svg width="407" height="64" viewBox="0 0 407 64" fill="none" xmlns="http://www.w3.org/2000/svg">
<rect x="180" width="161" height="64" rx="6" fill="#F2F2F2"/>
<circle cx="327.711" cy="13.7105" r="1.71053" transform="rotate(90 327.711 13.7105)" fill="#404040"/>
<circle cx="327.711" cy="18.5" r="1.71053" transform="rotate(90 327.711 18.5)" fill="#404040"/>
<circle cx="327.711" cy="23.2894" r="1.71053" transform="rotate(90 327.711 23.2894)" fill="#404040"/>
<path d="M198.937 19.6307V22.8004H202.666V24.2454H198.937V27.555H203.132V29H197.165V18.1857H203.132V19.6307H198.937ZM207.085 21.6972C207.385 21.3036 207.794 20.9722 208.312 20.7028C208.83 20.4335 209.416 20.2989 210.068 20.2989C210.814 20.2989 211.492 20.4853 212.104 20.8582C212.725 21.2208 213.212 21.7335 213.564 22.3964C213.916 23.0594 214.092 23.8207 214.092 24.6805C214.092 25.5403 213.916 26.312 213.564 26.9956C213.212 27.6689 212.725 28.1972 212.104 28.5805C211.492 28.9534 210.814 29.1398 210.068 29.1398C209.416 29.1398 208.835 29.0104 208.328 28.7514C207.82 28.4821 207.406 28.1506 207.085 27.757V33.0709H205.314V20.4387H207.085V21.6972ZM212.29 24.6805C212.29 24.0901 212.166 23.5825 211.917 23.1578C211.679 22.7227 211.358 22.3964 210.954 22.1789C210.56 21.951 210.135 21.8371 209.68 21.8371C209.234 21.8371 208.81 21.951 208.406 22.1789C208.012 22.4068 207.691 22.7383 207.442 23.1733C207.204 23.6084 207.085 24.1211 207.085 24.7116C207.085 25.302 207.204 25.8199 207.442 26.2654C207.691 26.7004 208.012 27.0319 208.406 27.2598C208.81 27.4877 209.234 27.6016 209.68 27.6016C210.135 27.6016 210.56 27.4877 210.954 27.2598C211.358 27.0215 211.679 26.6797 211.917 26.2343C212.166 25.7889 212.29 25.2709 212.29 24.6805ZM216.745 19.3044C216.424 19.3044 216.155 19.1957 215.937 18.9781C215.72 18.7606 215.611 18.4913 215.611 18.1702C215.611 17.8491 215.72 17.5797 215.937 17.3622C216.155 17.1447 216.424 17.0359 216.745 17.0359C217.056 17.0359 217.32 17.1447 217.538 17.3622C217.755 17.5797 217.864 17.8491 217.864 18.1702C217.864 18.4913 217.755 18.7606 217.538 18.9781C217.32 19.1957 217.056 19.3044 216.745 19.3044ZM217.615 20.4387V29H215.844V20.4387H217.615ZM219.35 24.7116C219.35 23.8311 219.527 23.0594 219.879 22.3964C220.241 21.7231 220.739 21.2052 221.37 20.8427C222.002 20.4801 222.727 20.2989 223.546 20.2989C224.582 20.2989 225.436 20.5475 226.109 21.0447C226.793 21.5315 227.254 22.2307 227.492 23.1423H225.581C225.426 22.7176 225.177 22.3861 224.835 22.1478C224.493 21.9096 224.064 21.7905 223.546 21.7905C222.821 21.7905 222.24 22.0494 221.805 22.5674C221.381 23.0749 221.168 23.7897 221.168 24.7116C221.168 25.6335 221.381 26.3534 221.805 26.8713C222.24 27.3893 222.821 27.6482 223.546 27.6482C224.571 27.6482 225.25 27.1976 225.581 26.2964H227.492C227.244 27.1665 226.778 27.8606 226.094 28.3785C225.41 28.8861 224.561 29.1398 223.546 29.1398C222.727 29.1398 222.002 28.9586 221.37 28.596C220.739 28.2231 220.241 27.7052 219.879 27.0422C219.527 26.3689 219.35 25.592 219.35 24.7116ZM234.039 26.5916C235.034 25.7319 235.816 25.0275 236.386 24.4785C236.966 23.9191 237.447 23.3391 237.831 22.7383C238.214 22.1375 238.406 21.5367 238.406 20.9359C238.406 20.3144 238.255 19.8275 237.955 19.4753C237.665 19.1232 237.204 18.9471 236.572 18.9471C235.961 18.9471 235.485 19.1439 235.143 19.5375C234.811 19.9208 234.635 20.4387 234.614 21.0913H232.905C232.936 19.9104 233.288 19.0092 233.962 18.3877C234.645 17.7558 235.51 17.4399 236.557 17.4399C237.686 17.4399 238.566 17.7507 239.198 18.3722C239.84 18.9937 240.161 19.8224 240.161 20.8582C240.161 21.604 239.97 22.3239 239.586 23.018C239.214 23.7016 238.763 24.318 238.235 24.867C237.717 25.4056 237.054 26.0323 236.246 26.747L235.547 27.3685H240.472V28.8446H232.921V27.555L234.039 26.5916Z" fill="black"/>
<rect x="196" y="39" width="130" height="4" rx="2" fill="#D9D9D9"/>
<rect x="196" y="39" width="130" height="4" rx="2" fill="#D9D9D9"/>
<rect x="196" y="39" width="62" height="4" rx="2" fill="#D9D9D9"/>
<rect x="196" y="39" width="62" height="4" rx="2" fill="#72C800"/>
<path d="M295.3 53.13C295.3 52.5533 295.397 52.1033 295.59 51.78C295.787 51.4533 296.123 51.29 296.6 51.29C297.077 51.29 297.412 51.4533 297.605 51.78C297.802 52.1033 297.9 52.5533 297.9 53.13C297.9 53.7133 297.802 54.17 297.605 54.5C297.412 54.8267 297.077 54.99 296.6 54.99C296.123 54.99 295.787 54.8267 295.59 54.5C295.397 54.17 295.3 53.7133 295.3 53.13ZM297.34 53.13C297.34 52.86 297.322 52.6317 297.285 52.445C297.252 52.2583 297.182 52.1067 297.075 51.99C296.968 51.87 296.81 51.81 296.6 51.81C296.39 51.81 296.232 51.87 296.125 51.99C296.018 52.1067 295.947 52.2583 295.91 52.445C295.877 52.6317 295.86 52.86 295.86 53.13C295.86 53.41 295.877 53.645 295.91 53.835C295.943 54.025 296.013 54.1783 296.12 54.295C296.23 54.4117 296.39 54.47 296.6 54.47C296.81 54.47 296.968 54.4117 297.075 54.295C297.185 54.1783 297.257 54.025 297.29 53.835C297.323 53.645 297.34 53.41 297.34 53.13ZM298.493 52.255C298.513 51.945 298.631 51.7033 298.848 51.53C299.068 51.3567 299.348 51.27 299.688 51.27C299.921 51.27 300.123 51.3117 300.293 51.395C300.463 51.4783 300.591 51.5917 300.678 51.735C300.765 51.8783 300.808 52.04 300.808 52.22C300.808 52.4267 300.753 52.6033 300.643 52.75C300.533 52.8967 300.401 52.995 300.248 53.045V53.065C300.445 53.125 300.598 53.235 300.708 53.395C300.818 53.5517 300.873 53.7533 300.873 54C300.873 54.1967 300.828 54.3717 300.738 54.525C300.648 54.6783 300.515 54.8 300.338 54.89C300.161 54.9767 299.95 55.02 299.703 55.02C299.343 55.02 299.046 54.9283 298.813 54.745C298.583 54.5583 298.46 54.2917 298.443 53.945H298.993C299.006 54.1217 299.075 54.2667 299.198 54.38C299.321 54.49 299.488 54.545 299.698 54.545C299.901 54.545 300.058 54.49 300.168 54.38C300.278 54.2667 300.333 54.1217 300.333 53.945C300.333 53.7117 300.258 53.5467 300.108 53.45C299.961 53.35 299.735 53.3 299.428 53.3H299.298V52.83H299.433C299.703 52.8267 299.908 52.7817 300.048 52.695C300.191 52.6083 300.263 52.4717 300.263 52.285C300.263 52.125 300.211 51.9983 300.108 51.905C300.005 51.8083 299.858 51.76 299.668 51.76C299.481 51.76 299.336 51.8083 299.233 51.905C299.13 51.9983 299.068 52.115 299.048 52.255H298.493ZM303.136 51.88C303.032 51.88 302.946 51.845 302.876 51.775C302.806 51.705 302.771 51.6183 302.771 51.515C302.771 51.4117 302.806 51.325 302.876 51.255C302.946 51.185 303.032 51.15 303.136 51.15C303.236 51.15 303.321 51.185 303.391 51.255C303.461 51.325 303.496 51.4117 303.496 51.515C303.496 51.6183 303.461 51.705 303.391 51.775C303.321 51.845 303.236 51.88 303.136 51.88ZM303.416 52.245V55H302.846V52.245H303.416ZM304.829 52.71V54.235C304.829 54.3383 304.852 54.4133 304.899 54.46C304.949 54.5033 305.032 54.525 305.149 54.525H305.499V55H305.049C304.792 55 304.596 54.94 304.459 54.82C304.322 54.7 304.254 54.505 304.254 54.235V52.71H303.929V52.245H304.254V51.56H304.829V52.245H305.499V52.71H304.829ZM308.549 53.555C308.549 53.6583 308.543 53.7517 308.529 53.835H306.424C306.441 54.055 306.523 54.2317 306.669 54.365C306.816 54.4983 306.996 54.565 307.209 54.565C307.516 54.565 307.733 54.4367 307.859 54.18H308.474C308.391 54.4333 308.239 54.6417 308.019 54.805C307.803 54.965 307.533 55.045 307.209 55.045C306.946 55.045 306.709 54.9867 306.499 54.87C306.293 54.75 306.129 54.5833 306.009 54.37C305.893 54.1533 305.834 53.9033 305.834 53.62C305.834 53.3367 305.891 53.0883 306.004 52.875C306.121 52.6583 306.283 52.4917 306.489 52.375C306.699 52.2583 306.939 52.2 307.209 52.2C307.469 52.2 307.701 52.2567 307.904 52.37C308.108 52.4833 308.266 52.6433 308.379 52.85C308.493 53.0533 308.549 53.2883 308.549 53.555ZM307.954 53.375C307.951 53.165 307.876 52.9967 307.729 52.87C307.583 52.7433 307.401 52.68 307.184 52.68C306.988 52.68 306.819 52.7433 306.679 52.87C306.539 52.9933 306.456 53.1617 306.429 53.375H307.954ZM312.445 52.2C312.662 52.2 312.855 52.245 313.025 52.335C313.199 52.425 313.334 52.5583 313.43 52.735C313.53 52.9117 313.58 53.125 313.58 53.375V55H313.015V53.46C313.015 53.2133 312.954 53.025 312.83 52.895C312.707 52.7617 312.539 52.695 312.325 52.695C312.112 52.695 311.942 52.7617 311.815 52.895C311.692 53.025 311.63 53.2133 311.63 53.46V55H311.065V53.46C311.065 53.2133 311.004 53.025 310.88 52.895C310.757 52.7617 310.589 52.695 310.375 52.695C310.162 52.695 309.992 52.7617 309.865 52.895C309.742 53.025 309.68 53.2133 309.68 53.46V55H309.11V52.245H309.68V52.56C309.774 52.4467 309.892 52.3583 310.035 52.295C310.179 52.2317 310.332 52.2 310.495 52.2C310.715 52.2 310.912 52.2467 311.085 52.34C311.259 52.4333 311.392 52.5683 311.485 52.745C311.569 52.5783 311.699 52.4467 311.875 52.35C312.052 52.25 312.242 52.2 312.445 52.2ZM315.306 55.045C315.089 55.045 314.894 55.0067 314.721 54.93C314.551 54.85 314.416 54.7433 314.316 54.61C314.216 54.4733 314.162 54.3217 314.156 54.155H314.746C314.756 54.2717 314.811 54.37 314.911 54.45C315.014 54.5267 315.142 54.565 315.296 54.565C315.456 54.565 315.579 54.535 315.666 54.475C315.756 54.4117 315.801 54.3317 315.801 54.235C315.801 54.1317 315.751 54.055 315.651 54.005C315.554 53.955 315.399 53.9 315.186 53.84C314.979 53.7833 314.811 53.7283 314.681 53.675C314.551 53.6217 314.437 53.54 314.341 53.43C314.247 53.32 314.201 53.175 314.201 52.995C314.201 52.8483 314.244 52.715 314.331 52.595C314.417 52.4717 314.541 52.375 314.701 52.305C314.864 52.235 315.051 52.2 315.261 52.2C315.574 52.2 315.826 52.28 316.016 52.44C316.209 52.5967 316.312 52.8117 316.326 53.085H315.756C315.746 52.9617 315.696 52.8633 315.606 52.79C315.516 52.7167 315.394 52.68 315.241 52.68C315.091 52.68 314.976 52.7083 314.896 52.765C314.816 52.8217 314.776 52.8967 314.776 52.99C314.776 53.0633 314.802 53.125 314.856 53.175C314.909 53.225 314.974 53.265 315.051 53.295C315.127 53.3217 315.241 53.3567 315.391 53.4C315.591 53.4533 315.754 53.5083 315.881 53.565C316.011 53.6183 316.122 53.6983 316.216 53.805C316.309 53.9117 316.357 54.0533 316.361 54.23C316.361 54.3867 316.317 54.5267 316.231 54.65C316.144 54.7733 316.021 54.87 315.861 54.94C315.704 55.01 315.519 55.045 315.306 55.045ZM318.845 51.3V55H318.275V51.3H318.845ZM322.119 53.555C322.119 53.6583 322.112 53.7517 322.099 53.835H319.994C320.01 54.055 320.092 54.2317 320.239 54.365C320.385 54.4983 320.565 54.565 320.779 54.565C321.085 54.565 321.302 54.4367 321.429 54.18H322.044C321.96 54.4333 321.809 54.6417 321.589 54.805C321.372 54.965 321.102 55.045 320.779 55.045C320.515 55.045 320.279 54.9867 320.069 54.87C319.862 54.75 319.699 54.5833 319.579 54.37C319.462 54.1533 319.404 53.9033 319.404 53.62C319.404 53.3367 319.46 53.0883 319.574 52.875C319.69 52.6583 319.852 52.4917 320.059 52.375C320.269 52.2583 320.509 52.2 320.779 52.2C321.039 52.2 321.27 52.2567 321.474 52.37C321.677 52.4833 321.835 52.6433 321.949 52.85C322.062 53.0533 322.119 53.2883 322.119 53.555ZM321.524 53.375C321.52 53.165 321.445 52.9967 321.299 52.87C321.152 52.7433 320.97 52.68 320.754 52.68C320.557 52.68 320.389 52.7433 320.249 52.87C320.109 52.9933 320.025 53.1617 319.999 53.375H321.524ZM323.835 52.71H323.325V55H322.75V52.71H322.425V52.245H322.75V52.05C322.75 51.7333 322.833 51.5033 323 51.36C323.17 51.2133 323.435 51.14 323.795 51.14V51.615C323.621 51.615 323.5 51.6483 323.43 51.715C323.36 51.7783 323.325 51.89 323.325 52.05V52.245H323.835V52.71ZM325.005 52.71V54.235C325.005 54.3383 325.028 54.4133 325.075 54.46C325.125 54.5033 325.208 54.525 325.325 54.525H325.675V55H325.225C324.968 55 324.772 54.94 324.635 54.82C324.498 54.7 324.43 54.505 324.43 54.235V52.71H324.105V52.245H324.43V51.56H325.005V52.245H325.675V52.71H325.005Z" fill="black"/>
<rect width="161" height="64" rx="6" fill="#F2F2F2"/>
<circle cx="147.711" cy="13.7105" r="1.71053" transform="rotate(90 147.711 13.7105)" fill="#404040"/>
<circle cx="147.711" cy="18.5" r="1.71053" transform="rotate(90 147.711 18.5)" fill="#404040"/>
<circle cx="147.711" cy="23.2894" r="1.71053" transform="rotate(90 147.711 23.2894)" fill="#404040"/>
<path d="M18.9366 19.6307V22.8004H22.6657V24.2454H18.9366V27.555H23.1318V29H17.1653V18.1857H23.1318V19.6307H18.9366ZM27.0849 21.6972C27.3853 21.3036 27.7944 20.9722 28.3123 20.7028C28.8303 20.4335 29.4155 20.2989 30.0681 20.2989C30.8139 20.2989 31.4924 20.4853 32.1036 20.8582C32.7251 21.2208 33.2119 21.7335 33.5641 22.3964C33.9163 23.0594 34.0924 23.8207 34.0924 24.6805C34.0924 25.5403 33.9163 26.312 33.5641 26.9956C33.2119 27.6689 32.7251 28.1972 32.1036 28.5805C31.4924 28.9534 30.8139 29.1398 30.0681 29.1398C29.4155 29.1398 28.8355 29.0104 28.3279 28.7514C27.8203 28.4821 27.406 28.1506 27.0849 27.757V33.0709H25.3136V20.4387H27.0849V21.6972ZM32.29 24.6805C32.29 24.0901 32.1657 23.5825 31.9171 23.1578C31.6789 22.7227 31.3577 22.3964 30.9538 22.1789C30.5601 21.951 30.1354 21.8371 29.6797 21.8371C29.2343 21.8371 28.8096 21.951 28.4056 22.1789C28.0119 22.4068 27.6908 22.7383 27.4422 23.1733C27.204 23.6084 27.0849 24.1211 27.0849 24.7116C27.0849 25.302 27.204 25.8199 27.4422 26.2654C27.6908 26.7004 28.0119 27.0319 28.4056 27.2598C28.8096 27.4877 29.2343 27.6016 29.6797 27.6016C30.1354 27.6016 30.5601 27.4877 30.9538 27.2598C31.3577 27.0215 31.6789 26.6797 31.9171 26.2343C32.1657 25.7889 32.29 25.2709 32.29 24.6805ZM36.7452 19.3044C36.4241 19.3044 36.1548 19.1957 35.9373 18.9781C35.7197 18.7606 35.611 18.4913 35.611 18.1702C35.611 17.8491 35.7197 17.5797 35.9373 17.3622C36.1548 17.1447 36.4241 17.0359 36.7452 17.0359C37.056 17.0359 37.3201 17.1447 37.5377 17.3622C37.7552 17.5797 37.8639 17.8491 37.8639 18.1702C37.8639 18.4913 37.7552 18.7606 37.5377 18.9781C37.3201 19.1957 37.056 19.3044 36.7452 19.3044ZM37.6153 20.4387V29H35.844V20.4387H37.6153ZM39.3505 24.7116C39.3505 23.8311 39.5266 23.0594 39.8788 22.3964C40.2413 21.7231 40.7385 21.2052 41.3704 20.8427C42.0023 20.4801 42.7273 20.2989 43.5457 20.2989C44.5815 20.2989 45.4361 20.5475 46.1094 21.0447C46.7931 21.5315 47.254 22.2307 47.4923 23.1423H45.5811C45.4257 22.7176 45.1771 22.3861 44.8353 22.1478C44.4935 21.9096 44.0636 21.7905 43.5457 21.7905C42.8206 21.7905 42.2405 22.0494 41.8054 22.5674C41.3807 23.0749 41.1684 23.7897 41.1684 24.7116C41.1684 25.6335 41.3807 26.3534 41.8054 26.8713C42.2405 27.3893 42.8206 27.6482 43.5457 27.6482C44.5712 27.6482 45.2496 27.1976 45.5811 26.2964H47.4923C47.2437 27.1665 46.7775 27.8606 46.0939 28.3785C45.4102 28.8861 44.5608 29.1398 43.5457 29.1398C42.7273 29.1398 42.0023 28.9586 41.3704 28.596C40.7385 28.2231 40.2413 27.7052 39.8788 27.0422C39.5266 26.3689 39.3505 25.592 39.3505 24.7116ZM52.8275 19.2889V17.673H56.0594V29H54.2726V19.2889H52.8275Z" fill="black"/>
<rect x="16" y="39" width="130" height="4" rx="2" fill="#D9D9D9"/>
<rect x="16" y="39" width="130" height="4" rx="2" fill="#D9D9D9"/>
<rect x="16" y="39" width="62" height="4" rx="2" fill="#D9D9D9"/>
<rect x="16" y="39" width="62" height="4" rx="2" fill="#72C800"/>
<path d="M115.3 53.13C115.3 52.5533 115.397 52.1033 115.59 51.78C115.787 51.4533 116.123 51.29 116.6 51.29C117.077 51.29 117.412 51.4533 117.605 51.78C117.802 52.1033 117.9 52.5533 117.9 53.13C117.9 53.7133 117.802 54.17 117.605 54.5C117.412 54.8267 117.077 54.99 116.6 54.99C116.123 54.99 115.787 54.8267 115.59 54.5C115.397 54.17 115.3 53.7133 115.3 53.13ZM117.34 53.13C117.34 52.86 117.322 52.6317 117.285 52.445C117.252 52.2583 117.182 52.1067 117.075 51.99C116.968 51.87 116.81 51.81 116.6 51.81C116.39 51.81 116.232 51.87 116.125 51.99C116.018 52.1067 115.947 52.2583 115.91 52.445C115.877 52.6317 115.86 52.86 115.86 53.13C115.86 53.41 115.877 53.645 115.91 53.835C115.943 54.025 116.013 54.1783 116.12 54.295C116.23 54.4117 116.39 54.47 116.6 54.47C116.81 54.47 116.968 54.4117 117.075 54.295C117.185 54.1783 117.257 54.025 117.29 53.835C117.323 53.645 117.34 53.41 117.34 53.13ZM118.493 52.255C118.513 51.945 118.631 51.7033 118.848 51.53C119.068 51.3567 119.348 51.27 119.688 51.27C119.921 51.27 120.123 51.3117 120.293 51.395C120.463 51.4783 120.591 51.5917 120.678 51.735C120.765 51.8783 120.808 52.04 120.808 52.22C120.808 52.4267 120.753 52.6033 120.643 52.75C120.533 52.8967 120.401 52.995 120.248 53.045V53.065C120.445 53.125 120.598 53.235 120.708 53.395C120.818 53.5517 120.873 53.7533 120.873 54C120.873 54.1967 120.828 54.3717 120.738 54.525C120.648 54.6783 120.515 54.8 120.338 54.89C120.161 54.9767 119.95 55.02 119.703 55.02C119.343 55.02 119.046 54.9283 118.813 54.745C118.583 54.5583 118.46 54.2917 118.443 53.945H118.993C119.006 54.1217 119.075 54.2667 119.198 54.38C119.321 54.49 119.488 54.545 119.698 54.545C119.901 54.545 120.058 54.49 120.168 54.38C120.278 54.2667 120.333 54.1217 120.333 53.945C120.333 53.7117 120.258 53.5467 120.108 53.45C119.961 53.35 119.735 53.3 119.428 53.3H119.298V52.83H119.433C119.703 52.8267 119.908 52.7817 120.048 52.695C120.191 52.6083 120.263 52.4717 120.263 52.285C120.263 52.125 120.211 51.9983 120.108 51.905C120.005 51.8083 119.858 51.76 119.668 51.76C119.481 51.76 119.336 51.8083 119.233 51.905C119.13 51.9983 119.068 52.115 119.048 52.255H118.493ZM123.136 51.88C123.032 51.88 122.946 51.845 122.876 51.775C122.806 51.705 122.771 51.6183 122.771 51.515C122.771 51.4117 122.806 51.325 122.876 51.255C122.946 51.185 123.032 51.15 123.136 51.15C123.236 51.15 123.321 51.185 123.391 51.255C123.461 51.325 123.496 51.4117 123.496 51.515C123.496 51.6183 123.461 51.705 123.391 51.775C123.321 51.845 123.236 51.88 123.136 51.88ZM123.416 52.245V55H122.846V52.245H123.416ZM124.829 52.71V54.235C124.829 54.3383 124.852 54.4133 124.899 54.46C124.949 54.5033 125.032 54.525 125.149 54.525H125.499V55H125.049C124.792 55 124.596 54.94 124.459 54.82C124.322 54.7 124.254 54.505 124.254 54.235V52.71H123.929V52.245H124.254V51.56H124.829V52.245H125.499V52.71H124.829ZM128.549 53.555C128.549 53.6583 128.543 53.7517 128.529 53.835H126.424C126.441 54.055 126.523 54.2317 126.669 54.365C126.816 54.4983 126.996 54.565 127.209 54.565C127.516 54.565 127.733 54.4367 127.859 54.18H128.474C128.391 54.4333 128.239 54.6417 128.019 54.805C127.803 54.965 127.533 55.045 127.209 55.045C126.946 55.045 126.709 54.9867 126.499 54.87C126.293 54.75 126.129 54.5833 126.009 54.37C125.893 54.1533 125.834 53.9033 125.834 53.62C125.834 53.3367 125.891 53.0883 126.004 52.875C126.121 52.6583 126.283 52.4917 126.489 52.375C126.699 52.2583 126.939 52.2 127.209 52.2C127.469 52.2 127.701 52.2567 127.904 52.37C128.108 52.4833 128.266 52.6433 128.379 52.85C128.493 53.0533 128.549 53.2883 128.549 53.555ZM127.954 53.375C127.951 53.165 127.876 52.9967 127.729 52.87C127.583 52.7433 127.401 52.68 127.184 52.68C126.988 52.68 126.819 52.7433 126.679 52.87C126.539 52.9933 126.456 53.1617 126.429 53.375H127.954ZM132.445 52.2C132.662 52.2 132.855 52.245 133.025 52.335C133.199 52.425 133.334 52.5583 133.43 52.735C133.53 52.9117 133.58 53.125 133.58 53.375V55H133.015V53.46C133.015 53.2133 132.954 53.025 132.83 52.895C132.707 52.7617 132.539 52.695 132.325 52.695C132.112 52.695 131.942 52.7617 131.815 52.895C131.692 53.025 131.63 53.2133 131.63 53.46V55H131.065V53.46C131.065 53.2133 131.004 53.025 130.88 52.895C130.757 52.7617 130.589 52.695 130.375 52.695C130.162 52.695 129.992 52.7617 129.865 52.895C129.742 53.025 129.68 53.2133 129.68 53.46V55H129.11V52.245H129.68V52.56C129.774 52.4467 129.892 52.3583 130.035 52.295C130.179 52.2317 130.332 52.2 130.495 52.2C130.715 52.2 130.912 52.2467 131.085 52.34C131.259 52.4333 131.392 52.5683 131.485 52.745C131.569 52.5783 131.699 52.4467 131.875 52.35C132.052 52.25 132.242 52.2 132.445 52.2ZM135.306 55.045C135.089 55.045 134.894 55.0067 134.721 54.93C134.551 54.85 134.416 54.7433 134.316 54.61C134.216 54.4733 134.162 54.3217 134.156 54.155H134.746C134.756 54.2717 134.811 54.37 134.911 54.45C135.014 54.5267 135.142 54.565 135.296 54.565C135.456 54.565 135.579 54.535 135.666 54.475C135.756 54.4117 135.801 54.3317 135.801 54.235C135.801 54.1317 135.751 54.055 135.651 54.005C135.554 53.955 135.399 53.9 135.186 53.84C134.979 53.7833 134.811 53.7283 134.681 53.675C134.551 53.6217 134.437 53.54 134.341 53.43C134.247 53.32 134.201 53.175 134.201 52.995C134.201 52.8483 134.244 52.715 134.331 52.595C134.417 52.4717 134.541 52.375 134.701 52.305C134.864 52.235 135.051 52.2 135.261 52.2C135.574 52.2 135.826 52.28 136.016 52.44C136.209 52.5967 136.312 52.8117 136.326 53.085H135.756C135.746 52.9617 135.696 52.8633 135.606 52.79C135.516 52.7167 135.394 52.68 135.241 52.68C135.091 52.68 134.976 52.7083 134.896 52.765C134.816 52.8217 134.776 52.8967 134.776 52.99C134.776 53.0633 134.802 53.125 134.856 53.175C134.909 53.225 134.974 53.265 135.051 53.295C135.127 53.3217 135.241 53.3567 135.391 53.4C135.591 53.4533 135.754 53.5083 135.881 53.565C136.011 53.6183 136.122 53.6983 136.216 53.805C136.309 53.9117 136.357 54.0533 136.361 54.23C136.361 54.3867 136.317 54.5267 136.231 54.65C136.144 54.7733 136.021 54.87 135.861 54.94C135.704 55.01 135.519 55.045 135.306 55.045ZM138.845 51.3V55H138.275V51.3H138.845ZM142.119 53.555C142.119 53.6583 142.112 53.7517 142.099 53.835H139.994C140.01 54.055 140.092 54.2317 140.239 54.365C140.385 54.4983 140.565 54.565 140.779 54.565C141.085 54.565 141.302 54.4367 141.429 54.18H142.044C141.96 54.4333 141.809 54.6417 141.589 54.805C141.372 54.965 141.102 55.045 140.779 55.045C140.515 55.045 140.279 54.9867 140.069 54.87C139.862 54.75 139.699 54.5833 139.579 54.37C139.462 54.1533 139.404 53.9033 139.404 53.62C139.404 53.3367 139.46 53.0883 139.574 52.875C139.69 52.6583 139.852 52.4917 140.059 52.375C140.269 52.2583 140.509 52.2 140.779 52.2C141.039 52.2 141.27 52.2567 141.474 52.37C141.677 52.4833 141.835 52.6433 141.949 52.85C142.062 53.0533 142.119 53.2883 142.119 53.555ZM141.524 53.375C141.52 53.165 141.445 52.9967 141.299 52.87C141.152 52.7433 140.97 52.68 140.754 52.68C140.557 52.68 140.389 52.7433 140.249 52.87C140.109 52.9933 140.025 53.1617 139.999 53.375H141.524ZM143.835 52.71H143.325V55H142.75V52.71H142.425V52.245H142.75V52.05C142.75 51.7333 142.833 51.5033 143 51.36C143.17 51.2133 143.435 51.14 143.795 51.14V51.615C143.621 51.615 143.5 51.6483 143.43 51.715C143.36 51.7783 143.325 51.89 143.325 52.05V52.245H143.835V52.71ZM145.005 52.71V54.235C145.005 54.3383 145.028 54.4133 145.075 54.46C145.125 54.5033 145.208 54.525 145.325 54.525H145.675V55H145.225C144.968 55 144.772 54.94 144.635 54.82C144.498 54.7 144.43 54.505 144.43 54.235V52.71H144.105V52.245H144.43V51.56H145.005V52.245H145.675V52.71H145.005Z" fill="black"/>
<rect x="360" width="47" height="64" rx="6" fill="#F2F2F2"/>
<path d="M378.937 19.6307V22.8004H382.666V24.2454H378.937V27.555H383.132V29H377.165V18.1857H383.132V19.6307H378.937ZM387.085 21.6972C387.385 21.3036 387.794 20.9722 388.312 20.7028C388.83 20.4335 389.416 20.2989 390.068 20.2989C390.814 20.2989 391.492 20.4853 392.104 20.8582C392.725 21.2208 393.212 21.7335 393.564 22.3964C393.916 23.0594 394.092 23.8207 394.092 24.6805C394.092 25.5403 393.916 26.312 393.564 26.9956C393.212 27.6689 392.725 28.1972 392.104 28.5805C391.492 28.9534 390.814 29.1398 390.068 29.1398C389.416 29.1398 388.835 29.0104 388.328 28.7514C387.82 28.4821 387.406 28.1506 387.085 27.757V33.0709H385.314V20.4387H387.085V21.6972ZM392.29 24.6805C392.29 24.0901 392.166 23.5825 391.917 23.1578C391.679 22.7227 391.358 22.3964 390.954 22.1789C390.56 21.951 390.135 21.8371 389.68 21.8371C389.234 21.8371 388.81 21.951 388.406 22.1789C388.012 22.4068 387.691 22.7383 387.442 23.1733C387.204 23.6084 387.085 24.1211 387.085 24.7116C387.085 25.302 387.204 25.8199 387.442 26.2654C387.691 26.7004 388.012 27.0319 388.406 27.2598C388.81 27.4877 389.234 27.6016 389.68 27.6016C390.135 27.6016 390.56 27.4877 390.954 27.2598C391.358 27.0215 391.679 26.6797 391.917 26.2343C392.166 25.7889 392.29 25.2709 392.29 24.6805ZM396.745 19.3044C396.424 19.3044 396.155 19.1957 395.937 18.9781C395.72 18.7606 395.611 18.4913 395.611 18.1702C395.611 17.8491 395.72 17.5797 395.937 17.3622C396.155 17.1447 396.424 17.0359 396.745 17.0359C397.056 17.0359 397.32 17.1447 397.538 17.3622C397.755 17.5797 397.864 17.8491 397.864 18.1702C397.864 18.4913 397.755 18.7606 397.538 18.9781C397.32 19.1957 397.056 19.3044 396.745 19.3044ZM397.615 20.4387V29H395.844V20.4387H397.615Z" fill="black"/>
<rect x="376" y="39" width="31" height="4" rx="2" fill="#D9D9D9"/>
<rect x="376" y="39" width="31" height="4" rx="2" fill="#72C800"/>
<rect x="407" y="64" width="28" height="64" transform="rotate(-180 407 64)" fill="url(#paint0_linear_360_848)"/>
<defs>
<linearGradient id="paint0_linear_360_848" x1="405.404" y1="92.4646" x2="441.018" y2="92.4646" gradientUnits="userSpaceOnUse">
<stop offset="0.355" stop-color="white"/>
<stop offset="0.485" stop-color="white" stop-opacity="0.760444"/>
<stop offset="0.62" stop-color="white" stop-opacity="0.51"/>
<stop offset="0.765" stop-color="white" stop-opacity="0"/>
</linearGradient>
</defs>
</svg>
