<svg width="64" height="42" viewBox="0 0 64 42" fill="none" xmlns="http://www.w3.org/2000/svg">
<rect x="12" y="10.4579" width="40" height="18" rx="9" fill="#289E0B"/>
<path d="M22.117 17.9811C20.9623 15.9811 22.4057 13.4811 24.7151 13.4811L40.3691 13.4811C42.6785 13.4811 44.1218 15.9811 42.9671 17.9811L35.1401 31.5378C33.9854 33.5378 31.0987 33.5378 29.944 31.5378L22.117 17.9811Z" fill="#289E0B"/>
<path d="M26.8039 16.1104V23.4131H25.6061V20.2188H22.1701V23.4131H20.9723V16.1104H22.1701V19.2416H25.6061V16.1104H26.8039ZM30.8922 23.5076C30.3458 23.5076 29.8519 23.385 29.4106 23.1399C28.9693 22.8877 28.6225 22.5374 28.3704 22.0891C28.1182 21.6338 27.9921 21.1084 27.9921 20.513C27.9921 19.9246 28.1217 19.4027 28.3809 18.9474C28.6401 18.4921 28.9938 18.1418 29.4421 17.8966C29.8904 17.6515 30.3913 17.5289 30.9447 17.5289C31.4981 17.5289 31.9989 17.6515 32.4473 17.8966C32.8956 18.1418 33.2493 18.4921 33.5085 18.9474C33.7677 19.4027 33.8973 19.9246 33.8973 20.513C33.8973 21.1014 33.7642 21.6233 33.498 22.0786C33.2318 22.5339 32.8676 22.8877 32.4052 23.1399C31.9499 23.385 31.4456 23.5076 30.8922 23.5076ZM30.8922 22.4674C31.2004 22.4674 31.4876 22.3938 31.7538 22.2467C32.027 22.0996 32.2476 21.879 32.4157 21.5848C32.5839 21.2905 32.6679 20.9333 32.6679 20.513C32.6679 20.0927 32.5874 19.7389 32.4262 19.4517C32.2651 19.1575 32.0515 18.9369 31.7853 18.7898C31.5191 18.6427 31.2319 18.5691 30.9237 18.5691C30.6155 18.5691 30.3283 18.6427 30.0621 18.7898C29.8029 18.9369 29.5962 19.1575 29.4421 19.4517C29.288 19.7389 29.211 20.0927 29.211 20.513C29.211 21.1364 29.3686 21.6198 29.6838 21.963C30.006 22.2993 30.4088 22.4674 30.8922 22.4674ZM37.1829 23.5076C36.7276 23.5076 36.3178 23.4271 35.9536 23.266C35.5963 23.0978 35.3126 22.8737 35.1025 22.5935C34.8923 22.3063 34.7802 21.9875 34.7662 21.6373H36.0061C36.0271 21.8825 36.1427 22.0891 36.3528 22.2572C36.57 22.4183 36.8397 22.4989 37.1619 22.4989C37.4982 22.4989 37.7573 22.4359 37.9395 22.3098C38.1286 22.1767 38.2232 22.0086 38.2232 21.8054C38.2232 21.5883 38.1181 21.4271 37.9079 21.3221C37.7048 21.217 37.3791 21.1014 36.9308 20.9753C36.4964 20.8562 36.1427 20.7407 35.8695 20.6286C35.5963 20.5165 35.3581 20.3449 35.155 20.1137C34.9588 19.8825 34.8608 19.5778 34.8608 19.1996C34.8608 18.8913 34.9518 18.6111 35.134 18.359C35.3161 18.0998 35.5753 17.8966 35.9115 17.7495C36.2548 17.6024 36.647 17.5289 37.0884 17.5289C37.7468 17.5289 38.2757 17.697 38.675 18.0332C39.0813 18.3625 39.2984 18.8143 39.3265 19.3887H38.1286C38.1076 19.1295 38.0025 18.9229 37.8134 18.7688C37.6242 18.6146 37.3686 18.5376 37.0463 18.5376C36.7311 18.5376 36.4894 18.5971 36.3213 18.7162C36.1532 18.8353 36.0691 18.9929 36.0691 19.1891C36.0691 19.3432 36.1252 19.4728 36.2373 19.5778C36.3493 19.6829 36.4859 19.767 36.647 19.83C36.8082 19.8861 37.0463 19.9596 37.3616 20.0507C37.7819 20.1627 38.1251 20.2783 38.3913 20.3974C38.6645 20.5095 38.8991 20.6776 39.0953 20.9018C39.2914 21.1259 39.393 21.4236 39.4 21.7949C39.4 22.1241 39.3089 22.4183 39.1268 22.6775C38.9447 22.9367 38.6855 23.1399 38.3493 23.287C38.02 23.4341 37.6312 23.5076 37.1829 23.5076ZM42.0918 18.6006V21.8054C42.0918 22.0226 42.1408 22.1802 42.2389 22.2782C42.344 22.3693 42.5191 22.4148 42.7643 22.4148H43.4998V23.4131H42.5541C42.0147 23.4131 41.6015 23.287 41.3143 23.0348C41.027 22.7826 40.8834 22.3728 40.8834 21.8054V18.6006H40.2005V17.6234H40.8834V16.1839H42.0918V17.6234H43.4998V18.6006H42.0918Z" fill="white"/>
</svg>
